<svg width="12" height="12" viewBox="0 0 12 12" fill="none" xmlns="http://www.w3.org/2000/svg">
<path d="M8.124 9.28038L4.37 6.21538C4.33235 6.19334 4.30112 6.16183 4.27942 6.12398C4.25772 6.08613 4.2463 6.04326 4.2463 5.99963C4.2463 5.956 4.25772 5.91313 4.27942 5.87528C4.30112 5.83743 4.33235 5.80592 4.37 5.78388L8.124 2.71888C8.16206 2.69666 8.20533 2.68491 8.2494 2.6848C8.29347 2.6847 8.33679 2.69625 8.37496 2.71828C8.41314 2.74031 8.44481 2.77204 8.46676 2.81025C8.48872 2.84847 8.50019 2.89181 8.5 2.93588L8.5 9.06438C8.50001 9.10837 8.48842 9.15158 8.46639 9.18966C8.44436 9.22773 8.41267 9.25932 8.37453 9.28123C8.33639 9.30314 8.29314 9.3146 8.24915 9.31445C8.20516 9.3143 8.16199 9.30255 8.124 9.28038Z" fill="#D6D8DC"/>
</svg>
