<svg width="16" height="16" viewBox="0 0 16 16" fill="none" xmlns="http://www.w3.org/2000/svg">
<g clip-path="url(#clip0_1248_4758)">
<path d="M11.3333 3.99992H14.6667V5.33325H13.3333V13.9999C13.3333 14.1767 13.2631 14.3463 13.1381 14.4713C13.0131 14.5963 12.8435 14.6666 12.6667 14.6666H3.33334C3.15653 14.6666 2.98696 14.5963 2.86194 14.4713C2.73691 14.3463 2.66668 14.1767 2.66668 13.9999V5.33325H1.33334V3.99992H4.66668V1.99992C4.66668 1.82311 4.73691 1.65354 4.86194 1.52851C4.98696 1.40349 5.15653 1.33325 5.33334 1.33325H10.6667C10.8435 1.33325 11.0131 1.40349 11.1381 1.52851C11.2631 1.65354 11.3333 1.82311 11.3333 1.99992V3.99992ZM12 5.33325H4.00001V13.3333H12V5.33325ZM6.00001 2.66659V3.99992H10V2.66659H6.00001Z" fill="#212121"/>
</g>
<defs>
<clipPath id="clip0_1248_4758">
<rect width="16" height="16" fill="white"/>
</clipPath>
</defs>
</svg>
