<svg width="48" height="48" viewBox="0 0 48 48" fill="none" xmlns="http://www.w3.org/2000/svg">
<g clip-path="url(#clip0_1248_4924)">
<path d="M8 0H40C45.3333 0 48 2.66667 48 8V40C48 45.3333 45.3333 48 40 48H8C2.66667 48 0 45.3333 0 40V8C0 2.66667 2.66667 0 8 0Z" fill="#9B9BF4"/>
<path d="M24 0H40C42.1217 0 44.1566 0.842855 45.6568 2.34315C47.1571 3.84344 48 5.87827 48 8V40C48 42.1217 47.1571 44.1566 45.6568 45.6568C44.1566 47.1571 42.1217 48 40 48H8C5.87827 48 3.84344 47.1571 2.34315 45.6568C0.842855 44.1566 0 42.1217 0 40V24C0 10.746 10.746 0 24 0Z" fill="#7171EE"/>
<path d="M18.552 23.272C18.552 25.144 17.192 26.936 14.664 26.936H12.952V31H10.152V19.608H14.664C17.192 19.608 18.552 21.4 18.552 23.272ZM15.752 23.272C15.752 22.68 15.304 22.12 14.536 22.12H12.952V24.424H14.536C15.304 24.424 15.752 23.864 15.752 23.272ZM28.6633 25.304C28.6633 27.096 28.8073 28.552 27.4792 29.88C26.6953 30.664 25.5913 31 24.4073 31H20.1833V19.608H24.4073C25.5913 19.608 26.6953 19.944 27.4792 20.728C28.8073 22.056 28.6633 23.512 28.6633 25.304ZM25.8633 25.304C25.8633 23.384 25.7833 23.064 25.5593 22.744C25.3033 22.36 24.9193 22.104 24.2153 22.104H22.9833V28.504H24.2153C24.9193 28.504 25.3033 28.248 25.5593 27.864C25.7833 27.544 25.8633 27.24 25.8633 25.304ZM38.3491 22.104H33.4051V24.104H37.6291V26.6H33.4051V31H30.6051V19.608H38.3491V22.104Z" fill="white"/>
</g>
<defs>
<clipPath id="clip0_1248_4924">
<rect width="48" height="48" fill="white"/>
</clipPath>
</defs>
</svg>
