<svg width="29" height="32" viewBox="0 0 29 32" fill="none" xmlns="http://www.w3.org/2000/svg">
<g clip-path="url(#clip0_1248_4468)">
<path d="M1.73996 0C1.30495 0 0.840974 0.161123 0.521951 0.481145C0.202962 0.799579 0 1.20058 0 1.60075V30.4007C0 30.801 0.174006 31.2276 0.521985 31.5204C0.869998 31.8404 1.30579 32 1.73918 32H27.2592C27.6942 32 28.1582 31.8404 28.478 31.5204C28.8252 31.2011 29 30.801 29 30.4007V9.6L19.3333 0L1.73996 0Z" fill="#FF5562"/>
<path d="M29 9.6H21.3289C20.8291 9.6 20.2979 9.43014 19.9318 9.09127C19.7449 8.94444 19.5948 8.76257 19.4915 8.558C19.3882 8.35343 19.3343 8.13094 19.3333 7.90563V0L29 9.6Z" fill="#FFBBC0"/>
<path d="M3.22227 15.2968C3.22227 15.1066 3.23866 14.9519 3.27141 14.8346C3.29781 14.7263 3.36513 14.6302 3.46133 14.5635C3.58201 14.4912 3.71994 14.4469 3.86326 14.4346C4.03679 14.4115 4.2652 14.3999 4.54667 14.3999H6.53235C7.15311 14.3999 7.67651 14.4497 8.10355 14.5493C8.53151 14.6497 8.88046 14.8159 9.15323 15.0524C9.42508 15.2879 9.62362 15.5973 9.74509 15.9822C9.86652 16.367 9.9282 16.8399 9.9282 17.4008C9.9282 17.9626 9.86267 18.4417 9.73064 18.8408C9.61894 19.2076 9.41103 19.5434 9.12526 19.8186C8.83229 20.0833 8.47104 20.2747 8.07558 20.375C7.64761 20.4924 7.13384 20.551 6.53332 20.551H5.05369V23.2941C5.05335 23.4761 4.97747 23.651 4.84163 23.783C4.70186 23.9288 4.46669 23.9999 4.13798 23.9999C3.80931 23.9999 3.57409 23.9226 3.43433 23.7688C3.29266 23.615 3.22223 23.4577 3.22223 23.2941L3.22227 15.2968ZM5.05369 19.0301H6.53332C7.13384 19.0301 7.54541 18.9048 7.7652 18.6506C7.98689 18.3972 8.09678 17.9848 8.09678 17.415C8.09678 17.1164 8.05631 16.8719 7.97726 16.6817C7.90885 16.5072 7.79498 16.3509 7.64567 16.2266C7.50467 16.1133 7.33546 16.0339 7.15311 15.9955C6.94972 15.9534 6.74175 15.9331 6.53332 15.935H5.05369V19.0301V19.0301ZM14.2533 14.3999C14.9859 14.3999 15.6172 14.5208 16.1484 14.76C16.6646 14.9891 17.1138 15.3289 17.4583 15.751C17.8005 16.1724 18.055 16.6702 18.2189 17.2444C18.3827 17.8204 18.4656 18.4417 18.4656 19.1119C18.4656 19.8266 18.3808 20.4763 18.2121 21.0604C18.0644 21.603 17.801 22.1131 17.4371 22.5608C17.0901 22.9768 16.6467 23.3075 16.1406 23.5252C15.6249 23.751 15.0186 23.8648 14.3236 23.8648H11.6469C11.3182 23.8648 11.109 23.8114 11.0203 23.7083C10.9307 23.6043 10.8854 23.4523 10.8854 23.2532V15.0115C10.8854 14.8124 10.9287 14.6604 11.0126 14.5564C11.0974 14.4524 11.3085 14.3999 11.6469 14.3999H14.2533ZM12.7178 22.4523H14.3237C15.863 22.4523 16.6342 21.3252 16.6342 19.071C16.6389 18.6067 16.5963 18.1431 16.507 17.6861C16.4231 17.279 16.2766 16.9377 16.0703 16.6613C15.8651 16.3863 15.5825 16.1682 15.2529 16.0302C14.9155 15.8844 14.4885 15.8124 13.9709 15.8124H12.7178V22.4523ZM24.5094 18.2159C24.7812 18.2159 24.9971 18.2781 25.1571 18.4061C25.2882 18.5324 25.3547 18.7261 25.3547 18.9901C25.3547 19.2612 25.2892 19.4532 25.1571 19.567C25.026 19.6799 24.8101 19.7359 24.5094 19.7359H21.5222V23.4434C21.5222 23.5697 21.4499 23.695 21.3044 23.8168C21.1578 23.9394 20.9217 23.9999 20.593 23.9999C20.2633 23.9999 20.031 23.9394 19.8951 23.8168C19.7602 23.695 19.6908 23.5705 19.6908 23.4434V15.1466C19.6908 14.8657 19.7669 14.6719 19.9163 14.5635C20.0676 14.4541 20.2922 14.3999 20.593 14.3999H24.946C25.2178 14.3999 25.4232 14.4568 25.5581 14.5697C25.694 14.6835 25.7682 14.8808 25.7769 15.1608C25.7866 15.4417 25.7162 15.6382 25.5649 15.751C25.4145 15.8648 25.2034 15.9208 24.9316 15.9208H21.5222V18.2159H24.5094Z" fill="white"/>
</g>
<defs>
<clipPath id="clip0_1248_4468">
<rect width="29" height="32" fill="white"/>
</clipPath>
</defs>
</svg>
