<svg width="16" height="16" viewBox="0 0 16 16" fill="none" xmlns="http://www.w3.org/2000/svg">
<g id="icon/show">
<path id="Vector" d="M12.6667 14.6668C12.8435 14.6668 13.0131 14.5966 13.1381 14.4716C13.2631 14.3465 13.3333 14.177 13.3333 14.0002V2.00016C13.3333 1.82335 13.2631 1.65378 13.1381 1.52876C13.0131 1.40373 12.8435 1.3335 12.6667 1.3335H3.33334C3.15653 1.3335 2.98696 1.40373 2.86194 1.52876C2.73691 1.65378 2.66668 1.82335 2.66668 2.00016V4.00016H4.00001V2.66683H12V13.3335H4.00001V12.0002H2.66668V14.0002C2.66668 14.177 2.73691 14.3465 2.86194 14.4716C2.98696 14.5966 3.15653 14.6668 3.33334 14.6668H12.6667ZM4.00001 10.6668V8.66683H8.66668V7.3335H4.00001V5.3335L0.666677 8.00016L4.00001 10.6668Z" fill="currentColor"/>
</g>
</svg>
