<svg width="16" height="16" viewBox="0 0 16 16" fill="none" xmlns="http://www.w3.org/2000/svg">
<g id="icon/show">
<path id="Vector" d="M12.6667 14.6668H3.33334C2.80291 14.6668 2.2942 14.4561 1.91913 14.081C1.54406 13.706 1.33334 13.1973 1.33334 12.6668V2.00016C1.33334 1.82335 1.40358 1.65378 1.52861 1.52876C1.65363 1.40373 1.8232 1.3335 2.00001 1.3335H11.3333C11.5102 1.3335 11.6797 1.40373 11.8047 1.52876C11.9298 1.65378 12 1.82335 12 2.00016V10.0002H14.6667V12.6668C14.6667 13.1973 14.456 13.706 14.0809 14.081C13.7058 14.4561 13.1971 14.6668 12.6667 14.6668ZM12 11.3335V12.6668C12 12.8436 12.0702 13.0132 12.1953 13.1382C12.3203 13.2633 12.4899 13.3335 12.6667 13.3335C12.8435 13.3335 13.0131 13.2633 13.1381 13.1382C13.2631 13.0132 13.3333 12.8436 13.3333 12.6668V11.3335H12ZM10.6667 13.3335V2.66683H2.66668V12.6668C2.66668 12.8436 2.73691 13.0132 2.86194 13.1382C2.98696 13.2633 3.15653 13.3335 3.33334 13.3335H10.6667ZM4.00001 4.66683H9.33334V6.00016H4.00001V4.66683ZM4.00001 7.3335H9.33334V8.66683H4.00001V7.3335ZM4.00001 10.0002H7.33334V11.3335H4.00001V10.0002Z" fill="currentColor"/>
</g>
</svg>
