<svg width="20" height="20" viewBox="0 0 20 20" fill="none" xmlns="http://www.w3.org/2000/svg">
<path d="M9.08509 5.34821L9.08509 16.7251C9.08509 17.1532 9.47239 17.5 9.94908 17.5L9.99708 17.5C10.4738 17.5 10.8611 17.1532 10.8611 16.7251L10.8611 5.32902L16.0184 10.1634C16.3544 10.4616 16.9105 10.5686 17.2465 10.2704L17.2531 10.2645C17.5891 9.96639 17.5775 9.37378 17.2465 9.07121L17.2382 9.06383L10.2603 2.61181C10.0923 2.46273 9.82078 2.46273 9.65281 2.61181L8.72757 3.43391L2.75263 8.99741C2.41332 9.2985 2.41828 9.90402 2.75262 10.2081L2.75925 10.214L2.78738 10.2391C3.12338 10.5387 3.65966 10.4247 3.99565 10.125L9.08509 5.34821Z" fill="currentColor"/>
</svg>
