<svg width="21" height="20" viewBox="0 0 21 20" fill="none" xmlns="http://www.w3.org/2000/svg">
<path d="M10.1419 18.3332C5.53943 18.3332 1.80859 14.6023 1.80859 9.99984C1.80859 5.39734 5.53943 1.6665 10.1419 1.6665C14.7444 1.6665 18.4753 5.39734 18.4753 9.99984C18.4753 14.6023 14.7444 18.3332 10.1419 18.3332ZM10.1419 16.6665C11.91 16.6665 13.6057 15.9641 14.856 14.7139C16.1062 13.4636 16.8086 11.7679 16.8086 9.99984C16.8086 8.23173 16.1062 6.53603 14.856 5.28579C13.6057 4.03555 11.91 3.33317 10.1419 3.33317C8.37382 3.33317 6.67812 4.03555 5.42788 5.28579C4.17764 6.53603 3.47526 8.23173 3.47526 9.99984C3.47526 11.7679 4.17764 13.4636 5.42788 14.7139C6.67812 15.9641 8.37382 16.6665 10.1419 16.6665Z" fill="currentColor"/>
<path d="M10.1406 8.82098L12.4976 6.46396L13.6762 7.64247L11.3191 9.99949L13.6762 12.3565L12.4976 13.535L10.1406 11.178L7.7836 13.535L6.60509 12.3565L8.96211 9.99949L6.60509 7.64247L7.7836 6.46396L10.1406 8.82098Z" fill="currentColor"/>
</svg>
