<svg width="16" height="16" viewBox="0 0 16 16" fill="none" xmlns="http://www.w3.org/2000/svg">
<path d="M7.99935 1.33341C11.6813 1.33341 14.666 4.31808 14.666 8.00008C14.666 11.6821 11.6813 14.6667 7.99935 14.6667C4.31735 14.6667 1.33268 11.6821 1.33268 8.00008C1.33268 4.31808 4.31735 1.33341 7.99935 1.33341ZM7.99935 2.66675C6.58486 2.66675 5.22831 3.22865 4.22811 4.22884C3.22792 5.22904 2.66602 6.58559 2.66602 8.00008C2.66602 9.41457 3.22792 10.7711 4.22811 11.7713C5.22831 12.7715 6.58486 13.3334 7.99935 13.3334C9.41384 13.3334 10.7704 12.7715 11.7706 11.7713C12.7708 10.7711 13.3327 9.41457 13.3327 8.00008C13.3327 6.58559 12.7708 5.22904 11.7706 4.22884C10.7704 3.22865 9.41384 2.66675 7.99935 2.66675V2.66675ZM8.66602 6.00008L7.33268 6.00008L7.33268 4.66675L8.66602 4.66675L8.66602 6.00008ZM8.66602 11.3334L7.33268 11.3334L7.33268 7.33341L8.66602 7.33341L8.66602 11.3334Z" fill="currentColor"/>
</svg>
