<svg width="24" height="22" viewBox="0 0 24 22" fill="none" xmlns="http://www.w3.org/2000/svg">
<g clip-path="url(#clip0_3983_9183)">
<path d="M5 15V17C5 18.054 5.95 19 7 19H10V21H7C5.93913 21 4.92172 20.5786 4.17157 19.8284C3.42143 19.0783 3 18.0609 3 17V15H5ZM18 10L22.4 21H20.245L19.044 18H14.954L13.755 21H11.601L16 10H18ZM17 12.885L15.753 16H18.245L17 12.885ZM3 3H9C9.57904 3.00021 10.1456 3.16798 10.6314 3.48307C11.1172 3.79817 11.5015 4.24711 11.7378 4.77574C11.9741 5.30437 12.0523 5.89009 11.9631 6.46221C11.8739 7.03433 11.621 7.56841 11.235 8C11.621 8.43159 11.8739 8.96567 11.9631 9.53779C12.0523 10.1099 11.9741 10.6956 11.7378 11.2243C11.5015 11.7529 11.1172 12.2018 10.6314 12.5169C10.1456 12.832 9.57904 12.9998 9 13H3V3ZM9 9H5V11H9C9.26522 11 9.51957 10.8946 9.70711 10.7071C9.89464 10.5196 10 10.2652 10 10C10 9.73478 9.89464 9.48043 9.70711 9.29289C9.51957 9.10536 9.26522 9 9 9ZM17 3C18.0609 3 19.0783 3.42143 19.8284 4.17157C20.5786 4.92172 21 5.93913 21 7V9H19V7C19 6.46957 18.7893 5.96086 18.4142 5.58579C18.0391 5.21071 17.5304 5 17 5H14V3H17ZM9 5H5V7H9C9.26522 7 9.51957 6.89464 9.70711 6.70711C9.89464 6.51957 10 6.26522 10 6C10 5.73478 9.89464 5.48043 9.70711 5.29289C9.51957 5.10536 9.26522 5 9 5Z" fill="currentColor"/>
<path d="M8.46568 20.3799L7.05068 17.5417L8.84177 16.6493L9.99438 18.9641C9.94785 19.9124 9.77614 19.6158 8.46568 20.3799Z" fill="currentColor"/>
<path d="M15.5692 3.61216L16.9605 6.46208L15.162 7.33955L14.0288 5.01521C14.0832 4.06733 14.2524 4.36532 15.5692 3.61216Z" fill="currentColor"/>
</g>
<defs>
<clipPath id="clip0_3983_9183">
<rect width="24" height="24" fill="white"/>
</clipPath>
</defs>
</svg>
