<svg width="24" height="24" viewBox="0 0 24 24" fill="none" xmlns="http://www.w3.org/2000/svg">
<path d="M8 4H21V6H8V4ZM4.5 6.5C4.10218 6.5 3.72064 6.34196 3.43934 6.06066C3.15804 5.77936 3 5.39782 3 5C3 4.60218 3.15804 4.22064 3.43934 3.93934C3.72064 3.65804 4.10218 3.5 4.5 3.5C4.89782 3.5 5.27936 3.65804 5.56066 3.93934C5.84196 4.22064 6 4.60218 6 5C6 5.39782 5.84196 5.77936 5.56066 6.06066C5.27936 6.34196 4.89782 6.5 4.5 6.5ZM4.5 13.5C4.10218 13.5 3.72064 13.342 3.43934 13.0607C3.15804 12.7794 3 12.3978 3 12C3 11.6022 3.15804 11.2206 3.43934 10.9393C3.72064 10.658 4.10218 10.5 4.5 10.5C4.89782 10.5 5.27936 10.658 5.56066 10.9393C5.84196 11.2206 6 11.6022 6 12C6 12.3978 5.84196 12.7794 5.56066 13.0607C5.27936 13.342 4.89782 13.5 4.5 13.5ZM4.5 20.4C4.10218 20.4 3.72064 20.242 3.43934 19.9607C3.15804 19.6794 3 19.2978 3 18.9C3 18.5022 3.15804 18.1206 3.43934 17.8393C3.72064 17.558 4.10218 17.4 4.5 17.4C4.89782 17.4 5.27936 17.558 5.56066 17.8393C5.84196 18.1206 6 18.5022 6 18.9C6 19.2978 5.84196 19.6794 5.56066 19.9607C5.27936 20.242 4.89782 20.4 4.5 20.4ZM8 11H21V13H8V11ZM8 18H21V20H8V18Z" fill="currentColor"/>
</svg>
