<svg width="24" height="24" viewBox="0 0 24 24" fill="none" xmlns="http://www.w3.org/2000/svg">
<path fill-rule="evenodd" clip-rule="evenodd" d="M7.68061 19.2674C7.42077 18.9788 7.44407 18.5342 7.73265 18.2743L14.7259 11.9776L7.73265 5.68083C7.44407 5.42099 7.42077 4.9764 7.68061 4.68782C7.94045 4.39924 8.38503 4.37594 8.67361 4.63578L16.1116 11.333C16.1873 11.3711 16.2574 11.4237 16.3176 11.4906C16.4427 11.6294 16.5021 11.8044 16.498 11.9776C16.5021 12.1507 16.4427 12.3257 16.3176 12.4646C16.2574 12.5315 16.1873 12.5841 16.1116 12.6222L8.67361 19.3194C8.38503 19.5792 7.94045 19.5559 7.68061 19.2674Z" fill="currentColor"/>
</svg>
