<svg width="20" height="20" viewBox="0 0 20 20" fill="none" xmlns="http://www.w3.org/2000/svg">
<g clip-path="url(#clip0_3931_9141)">
<path d="M5.09699 16.7392C4.03368 15.9666 3.16851 14.9531 2.57232 13.7818C1.97613 12.6104 1.66589 11.3144 1.667 10.0001C1.667 5.39758 5.39783 1.66675 10.0003 1.66675C14.6028 1.66675 18.3337 5.39758 18.3337 10.0001C18.3348 11.3144 18.0245 12.6104 17.4283 13.7818C16.8321 14.9531 15.967 15.9666 14.9037 16.7392L14.0578 15.2901C15.1632 14.4422 15.9751 13.2694 16.3797 11.9364C16.7842 10.6034 16.761 9.17714 16.3134 7.85798C15.8657 6.53881 15.016 5.39302 13.8837 4.58155C12.7514 3.77008 11.3934 3.33369 10.0003 3.33369C8.60727 3.33369 7.24922 3.77008 6.11691 4.58155C4.98461 5.39302 4.13495 6.53881 3.68728 7.85798C3.23961 9.17714 3.21642 10.6034 3.62098 11.9364C4.02553 13.2694 4.8375 14.4422 5.94283 15.2901L5.09699 16.7392ZM6.79199 13.8351C6.00452 13.1763 5.43894 12.291 5.17212 11.2996C4.9053 10.3081 4.95016 9.25856 5.30062 8.2935C5.65107 7.32844 6.29012 6.49466 7.13095 5.90545C7.97177 5.31624 8.97361 5.00016 10.0003 5.00016C11.0271 5.00016 12.0289 5.31624 12.8697 5.90545C13.7105 6.49466 14.3496 7.32844 14.7 8.2935C15.0505 9.25856 15.0954 10.3081 14.8285 11.2996C14.5617 12.291 13.9961 13.1763 13.2087 13.8351L12.3503 12.3634C12.8185 11.898 13.1379 11.3041 13.2682 10.657C13.3984 10.0098 13.3335 9.3386 13.0818 8.72836C12.8301 8.11812 12.4029 7.59635 11.8543 7.2292C11.3057 6.86205 10.6604 6.66606 10.0003 6.66606C9.34021 6.66606 8.69496 6.86205 8.14637 7.2292C7.59777 7.59635 7.17054 8.11812 6.91884 8.72836C6.66713 9.3386 6.60228 10.0098 6.7325 10.657C6.86273 11.3041 7.18217 11.898 7.65033 12.3634L6.79199 13.8351ZM9.16699 10.8334H10.8337L11.667 18.3334H8.33366L9.16699 10.8334Z" fill="currentColor"/>
</g>
<defs>
<clipPath id="clip0_3931_9141">
<rect width="20" height="20" fill="white"/>
</clipPath>
</defs>
</svg>
