<svg width="20" height="20" viewBox="0 0 20 20" fill="none" xmlns="http://www.w3.org/2000/svg">
<path d="M1.84381 11.7166C1.60415 10.5847 1.60415 9.41511 1.84381 8.28322C2.76881 8.39155 3.57714 8.08572 3.84047 7.44905C4.10464 6.81155 3.75047 6.02405 3.01881 5.44655C3.64967 4.47682 4.47658 3.64992 5.44631 3.01905C6.02297 3.74988 6.81131 4.10488 7.44881 3.84072C8.08631 3.57655 8.39214 2.76905 8.28297 1.84405C9.41487 1.60439 10.5844 1.60439 11.7163 1.84405C11.608 2.76905 11.9138 3.57738 12.5505 3.84072C13.188 4.10488 13.9755 3.75072 14.553 3.01905C15.5227 3.64992 16.3496 4.47682 16.9805 5.44655C16.2496 6.02322 15.8946 6.81155 16.1588 7.44905C16.423 8.08655 17.2305 8.39238 18.1555 8.28322C18.3951 9.41511 18.3951 10.5847 18.1555 11.7166C17.2305 11.6082 16.4221 11.9141 16.1588 12.5507C15.8946 13.1882 16.2488 13.9757 16.9805 14.5532C16.3496 15.5229 15.5227 16.3499 14.553 16.9807C13.9763 16.2499 13.188 15.8949 12.5505 16.1591C11.913 16.4232 11.6071 17.2307 11.7163 18.1557C10.5844 18.3954 9.41487 18.3954 8.28297 18.1557C8.39131 17.2307 8.08547 16.4224 7.44881 16.1591C6.81131 15.8949 6.02381 16.2491 5.44631 16.9807C4.47658 16.3499 3.64967 15.5229 3.01881 14.5532C3.74964 13.9766 4.10464 13.1882 3.84047 12.5507C3.57631 11.9132 2.76881 11.6074 1.84381 11.7166V11.7166ZM3.33297 10.1749C4.24964 10.4291 5.00547 11.0099 5.38047 11.9132C5.75464 12.8174 5.63047 13.7632 5.16214 14.5899C5.24214 14.6749 5.32464 14.7574 5.40964 14.8374C6.23714 14.3691 7.18214 14.2457 8.08631 14.6191C8.98964 14.9941 9.57047 15.7499 9.82464 16.6666C9.94131 16.6699 10.058 16.6699 10.1746 16.6666C10.4288 15.7499 11.0096 14.9941 11.913 14.6191C12.8171 14.2449 13.763 14.3691 14.5896 14.8374C14.6746 14.7574 14.7571 14.6749 14.8371 14.5899C14.3688 13.7624 14.2455 12.8174 14.6188 11.9132C14.9938 11.0099 15.7496 10.4291 16.6663 10.1749C16.6696 10.0582 16.6696 9.94155 16.6663 9.82488C15.7496 9.57072 14.9938 8.98988 14.6188 8.08655C14.2446 7.18238 14.3688 6.23655 14.8371 5.40988C14.7568 5.32521 14.6743 5.24269 14.5896 5.16238C13.7621 5.63072 12.8171 5.75405 11.913 5.38072C11.0096 5.00572 10.4288 4.24988 10.1746 3.33322C10.058 3.33013 9.94129 3.33013 9.82464 3.33322C9.57047 4.24988 8.98964 5.00572 8.08631 5.38072C7.18214 5.75488 6.23631 5.63072 5.40964 5.16238C5.32464 5.24238 5.24214 5.32488 5.16214 5.40988C5.63047 6.23738 5.75381 7.18238 5.38047 8.08655C5.00547 8.98988 4.24964 9.57072 3.33297 9.82488C3.32964 9.94155 3.32964 10.0582 3.33297 10.1749V10.1749ZM9.99964 12.4999C9.3366 12.4999 8.70071 12.2365 8.23187 11.7677C7.76303 11.2988 7.49964 10.6629 7.49964 9.99988C7.49964 9.33684 7.76303 8.70096 8.23187 8.23212C8.70071 7.76328 9.3366 7.49988 9.99964 7.49988C10.6627 7.49988 11.2986 7.76328 11.7674 8.23212C12.2362 8.70096 12.4996 9.33684 12.4996 9.99988C12.4996 10.6629 12.2362 11.2988 11.7674 11.7677C11.2986 12.2365 10.6627 12.4999 9.99964 12.4999ZM9.99964 10.8332C10.2207 10.8332 10.4326 10.7454 10.5889 10.5891C10.7452 10.4329 10.833 10.2209 10.833 9.99988C10.833 9.77887 10.7452 9.56691 10.5889 9.41063C10.4326 9.25435 10.2207 9.16655 9.99964 9.16655C9.77863 9.16655 9.56666 9.25435 9.41038 9.41063C9.2541 9.56691 9.16631 9.77887 9.16631 9.99988C9.16631 10.2209 9.2541 10.4329 9.41038 10.5891C9.56666 10.7454 9.77863 10.8332 9.99964 10.8332V10.8332Z" fill="currentColor"/>
</svg>
