<svg width="208" height="95" viewBox="0 0 208 95" fill="none" xmlns="http://www.w3.org/2000/svg">
<ellipse opacity="0.23" cx="35" cy="72" rx="27" ry="6" fill="#7171EE"/>
<ellipse opacity="0.23" cx="103" cy="72" rx="27" ry="6" fill="#7171EE"/>
<ellipse opacity="0.23" cx="170" cy="72" rx="27" ry="6" fill="#7171EE"/>
<ellipse opacity="0.23" cx="104" cy="72" rx="104" ry="23" fill="#7171EE"/>
<path d="M59.9996 62.5998H54.6996V71.9998H39.0996V62.5998H9.59961V46.9998L33.1996 0.799805H51.1996L27.5996 46.9998H39.0996V37.5998H54.6996V46.9998H59.9996V62.5998Z" fill="#7171EE"/>
<path d="M124.04 23.0419L91.0431 56.0406C94.9782 58.7686 99.6696 60.249 104.5 60.2497L124.04 23.0419ZM124.04 23.0419C126.768 26.9772 128.249 31.6691 128.25 36.5L124.04 23.0419ZM84.0505 48.5364C81.9534 44.9991 80.7495 40.8851 80.7495 36.5C80.7495 23.4427 91.4427 12.7495 104.5 12.7495H104.501C108.754 12.7486 112.911 13.8973 116.54 16.0492L84.0505 48.5364ZM128.25 36.5003C128.25 49.5566 117.557 60.2496 104.5 60.2497L128.25 36.5003ZM104.5 70.5C123.298 70.5 138.5 55.297 138.5 36.5C138.5 17.7022 123.298 2.5 104.5 2.5C85.7022 2.5 70.5 17.7022 70.5 36.5C70.5 55.2978 85.7022 70.5 104.5 70.5Z" fill="#FF5562" stroke="#FF5562" stroke-width="5"/>
<path d="M129.5 10L128 8.5V7.5L129.5 6V8V10Z" fill="white"/>
<path d="M196.599 50.7002C196.599 65.6002 185.399 72.6002 172.899 72.6002C161.099 72.6002 149.199 66.3002 149.199 50.3002H165.599C165.599 55.3002 168.799 57.8002 172.899 57.8002C177.199 57.8002 180.199 55.3002 180.199 50.2002C180.199 45.9002 176.999 42.7002 172.599 42.7002H170.299V28.5002H172.599C177.499 28.5002 179.399 25.0002 179.399 21.8002C179.399 17.3002 176.299 15.0002 172.899 15.0002C169.499 15.0002 166.399 17.4002 166.399 21.7002H149.999C149.999 8.3002 160.199 0.200195 172.899 0.200195C186.099 0.200195 195.799 9.00019 195.799 21.3002C195.799 29.1002 191.999 32.9002 188.399 35.2002C192.299 37.9002 196.599 42.2002 196.599 50.7002Z" fill="#7171EE"/>
</svg>
