<svg width="208" height="95" viewBox="0 0 208 95" fill="none" xmlns="http://www.w3.org/2000/svg">
<ellipse opacity="0.23" cx="35" cy="72" rx="27" ry="6" fill="#7171EE"/>
<ellipse opacity="0.23" cx="103" cy="72" rx="27" ry="6" fill="#7171EE"/>
<ellipse opacity="0.23" cx="170" cy="72" rx="27" ry="6" fill="#7171EE"/>
<ellipse opacity="0.23" cx="104" cy="72" rx="104" ry="23" fill="#7171EE"/>
<path d="M59.9996 62.5998H54.6996V71.9998H39.0996V62.5998H9.59961V46.9998L33.1996 0.799805H51.1996L27.5996 46.9998H39.0996V37.5998H54.6996V46.9998H59.9996V62.5998Z" fill="#7171EE"/>
<path d="M195 62.5998H189.7V71.9998H174.1V62.5998H144.6V46.9998L168.2 0.799805H186.2L162.6 46.9998H174.1V37.5998H189.7V46.9998H195V62.5998Z" fill="#7171EE"/>
<g clip-path="url(#clip0_4352_8521)">
<circle cx="102.5" cy="36.5" r="36.5" fill="#B8B8FB"/>
<path d="M107.5 14L106.426 9.06472L103 8.03132L106.426 6.93528L107.5 2L108.507 6.86639L112 8.03132L108.507 9.06472L107.5 14Z" fill="white"/>
<path opacity="0.6" d="M107.75 8.85269C106.886 19.4123 111.865 44.0533 138.688 58.1412" stroke="url(#paint0_linear_4352_8521)"/>
<path opacity="0.8" d="M141.133 43.4755C139.281 39.5124 135.416 36.9905 131.173 36.9768C128.809 36.9821 126.511 37.7775 124.617 39.2451C122.363 34.683 117.469 32.224 112.624 33.2193C107.779 34.2146 104.156 38.4231 103.747 43.5322C98.5344 45.2394 95.3001 50.6366 96.1292 56.244C96.9582 61.8514 101.603 65.9936 107.068 66H137.904C143.401 66.0108 148.074 61.8344 148.879 56.1902C149.685 50.546 146.38 45.1426 141.116 43.4982L141.133 43.4755Z" fill="url(#paint1_linear_4352_8521)"/>
<path opacity="0.8" d="M94.5468 27.0314C93.4988 24.7496 91.311 23.2975 88.9092 23.2897C87.5714 23.2927 86.2701 23.7507 85.1982 24.5957C83.9226 21.969 81.1525 20.5532 78.4098 21.1263C75.6672 21.6993 73.6166 24.1224 73.3849 27.064C70.4346 28.0469 68.6039 31.1544 69.0731 34.3829C69.5424 37.6114 72.1714 39.9963 75.2651 40H92.7191C95.8307 40.0062 98.4756 37.6016 98.9317 34.3519C99.3879 31.1022 97.5171 27.9912 94.5375 27.0444L94.5468 27.0314Z" fill="url(#paint2_linear_4352_8521)"/>
<path d="M56.6816 46.1543L72.3315 70.2479L57.5422 75.5083L56.6816 46.1543Z" fill="#66E399"/>
<path d="M110.548 50.7595L111.388 73.6006L97.6911 71.2643L110.548 50.7595Z" fill="#7171EE"/>
<path d="M110.314 50.7451L124.28 72.5759L110.314 79.4821L110.314 50.7451Z" fill="#9494FB"/>
<path d="M81.5765 31.3661L83.1737 79.4852L53.3435 74.7069L81.5765 31.3661Z" fill="#7171EE"/>
<path d="M81.1738 31.3418L112.093 72.982L82.8052 79.4629L81.1738 31.3418Z" fill="#9494FB"/>
</g>
<defs>
<linearGradient id="paint0_linear_4352_8521" x1="115.247" y1="6.8977" x2="129.251" y2="60.6019" gradientUnits="userSpaceOnUse">
<stop stop-color="white"/>
<stop offset="0.807292" stop-color="white" stop-opacity="0"/>
</linearGradient>
<linearGradient id="paint1_linear_4352_8521" x1="122.502" y1="65.9773" x2="122.502" y2="32.9732" gradientUnits="userSpaceOnUse">
<stop offset="0.296875" stop-color="white" stop-opacity="0.1"/>
<stop offset="1" stop-color="white"/>
</linearGradient>
<linearGradient id="paint2_linear_4352_8521" x1="84.0014" y1="39.9869" x2="84.0014" y2="20.9846" gradientUnits="userSpaceOnUse">
<stop offset="0.296875" stop-color="white" stop-opacity="0.1"/>
<stop offset="1" stop-color="white"/>
</linearGradient>
<clipPath id="clip0_4352_8521">
<rect x="66" width="73" height="73" rx="36.5" fill="white"/>
</clipPath>
</defs>
</svg>
