<svg width="16" height="16" viewBox="0 0 16 16" fill="none" xmlns="http://www.w3.org/2000/svg">
<g clip-path="url(#clip0_1093_1577)">
<path d="M9.73329 5.33335H14C14.3536 5.33335 14.6927 5.47383 14.9428 5.72388C15.1928 5.97392 15.3333 6.31306 15.3333 6.66668V8.06935C15.3335 8.24359 15.2995 8.41618 15.2333 8.57735L13.17 13.5874C13.1196 13.7095 13.0341 13.8139 12.9243 13.8874C12.8146 13.9609 12.6854 14.0001 12.5533 14H1.33329C1.15648 14 0.986912 13.9298 0.861888 13.8048C0.736864 13.6797 0.666626 13.5102 0.666626 13.3334V6.66668C0.666626 6.48987 0.736864 6.3203 0.861888 6.19528C0.986912 6.07026 1.15648 6.00002 1.33329 6.00002H3.65463C3.76136 6.00004 3.86653 5.97445 3.96132 5.92537C4.0561 5.8763 4.13771 5.80519 4.19929 5.71802L7.83463 0.566684C7.88058 0.501559 7.94835 0.455058 8.02565 0.435611C8.10295 0.416164 8.18466 0.425059 8.25596 0.460684L9.46529 1.06535C9.80563 1.23546 10.0775 1.51689 10.2358 1.86289C10.394 2.2089 10.4292 2.59863 10.3353 2.96735L9.73329 5.33335ZM3.33329 7.33335H1.99996V12.6667H3.33329V7.33335Z" fill="currentColor"/>
</g>
<defs>
<clipPath id="clip0_1093_1577">
<rect width="16" height="16" fill="white"/>
</clipPath>
</defs>
</svg>
