<svg width="16" height="16" viewBox="0 0 16 16" fill="none" xmlns="http://www.w3.org/2000/svg">
<path d="M13.3887 10.1333L14.1901 10.614C14.2395 10.6436 14.2804 10.6855 14.3088 10.7356C14.3372 10.7858 14.3522 10.8424 14.3522 10.9C14.3522 10.9576 14.3372 11.0143 14.3088 11.0644C14.2804 11.1145 14.2395 11.1564 14.1901 11.186L8.3434 14.694C8.23971 14.7563 8.12103 14.7892 8.00007 14.7892C7.8791 14.7892 7.76042 14.7563 7.65673 14.694L1.81007 11.186C1.76063 11.1564 1.71971 11.1145 1.6913 11.0644C1.66288 11.0143 1.64795 10.9576 1.64795 10.9C1.64795 10.8424 1.66288 10.7858 1.6913 10.7356C1.71971 10.6855 1.76063 10.6436 1.81007 10.614L2.6114 10.1333L8.00007 13.3667L13.3887 10.1333ZM13.3887 7.00001L14.1901 7.48067C14.2395 7.51027 14.2804 7.55217 14.3088 7.6023C14.3372 7.65242 14.3522 7.70905 14.3522 7.76667C14.3522 7.82429 14.3372 7.88092 14.3088 7.93105C14.2804 7.98117 14.2395 8.02308 14.1901 8.05267L8.00007 11.7667L1.81007 8.05267C1.76063 8.02308 1.71971 7.98117 1.6913 7.93105C1.66288 7.88092 1.64795 7.82429 1.64795 7.76667C1.64795 7.70905 1.66288 7.65242 1.6913 7.6023C1.71971 7.55217 1.76063 7.51027 1.81007 7.48067L2.6114 7.00001L8.00007 10.2333L13.3887 7.00001ZM8.34273 0.872672L14.1901 4.38067C14.2395 4.41027 14.2804 4.45217 14.3088 4.5023C14.3372 4.55242 14.3522 4.60905 14.3522 4.66667C14.3522 4.72429 14.3372 4.78092 14.3088 4.83105C14.2804 4.88117 14.2395 4.92308 14.1901 4.95267L8.00007 8.66667L1.81007 4.95267C1.76063 4.92308 1.71971 4.88117 1.6913 4.83105C1.66288 4.78092 1.64795 4.72429 1.64795 4.66667C1.64795 4.60905 1.66288 4.55242 1.6913 4.5023C1.71971 4.45217 1.76063 4.41027 1.81007 4.38067L7.65673 0.872672C7.76042 0.810377 7.8791 0.777466 8.00007 0.777466C8.12103 0.777466 8.23971 0.810377 8.3434 0.872672H8.34273ZM8.00007 2.22134L3.92473 4.66667L8.00007 7.11201L12.0754 4.66667L8.00007 2.22134Z" fill="currentColor"/>
</svg>
