<svg width="16" height="16" viewBox="0 0 16 16" fill="none" xmlns="http://www.w3.org/2000/svg">
<g opacity="0.25">
<path fill-rule="evenodd" clip-rule="evenodd" d="M3.1551 5.1204C3.34749 4.94718 3.64388 4.96271 3.8171 5.1551L8.01494 9.81727L12.2128 5.1551C12.386 4.96271 12.6824 4.94718 12.8748 5.1204C13.0672 5.29363 13.0827 5.59002 12.9095 5.78241L8.44469 10.7411C8.41925 10.7916 8.38418 10.8383 8.33963 10.8784C8.24705 10.9618 8.13038 11.0014 8.01494 10.9987C7.89951 11.0014 7.78284 10.9618 7.69026 10.8784C7.6457 10.8383 7.61063 10.7916 7.58519 10.7411L3.1204 5.78241C2.94718 5.59002 2.96271 5.29363 3.1551 5.1204Z" fill="currentColor" fill-opacity="0.75"/>
</g>
</svg>
