<svg width="16" height="16" viewBox="0 0 16 16" fill="none" xmlns="http://www.w3.org/2000/svg">
<path d="M7.09758 8.02077L2.72785 12.3905L3.6095 13.2721L7.97923 8.90242L7.09758 8.02077ZM7.96181 7.15654L8.84346 8.03819L10.1647 6.71694L9.28306 5.8353L7.96181 7.15654ZM6.23335 3.35136L4.91883 2.83294L6.23335 2.31452L6.75177 1L7.27018 2.31452L8.58471 2.83294L7.27018 3.35136L6.75177 4.66588L6.23335 3.35136ZM12.6486 3.35136L11.3341 2.83294L12.6486 2.31452L13.1671 1L13.6855 2.31452L15 2.83294L13.6855 3.35136L13.1671 4.66588L12.6486 3.35136ZM12.6486 9.46116L11.3341 8.94274L12.6486 8.42433L13.1671 7.1098L13.6855 8.42433L15 8.94274L13.6855 9.46116L13.1671 10.7757L12.6486 9.46116ZM11.8926 6.71694L3.6095 15L1 12.3905L9.28306 4.10745L11.8926 6.71694Z" fill="currentColor"/>
</svg>
