<svg width="24" height="24" viewBox="0 0 24 24" fill="none" xmlns="http://www.w3.org/2000/svg">
<circle cx="14" cy="12" r="8" fill="black"/>
<path fill-rule="evenodd" clip-rule="evenodd" d="M14 20C18.4183 20 22 16.4183 22 12C22 7.58172 18.4183 4 14 4C9.58172 4 6 7.58172 6 12C6 16.4183 9.58172 20 14 20ZM17.7457 14.5172L15.4892 12.2612C15.3455 12.1169 15.3455 11.883 15.4892 11.7392L17.7129 9.51605C18.0187 9.20975 18.093 8.71726 17.8403 8.3661C17.5181 7.91847 16.89 7.88133 16.5172 8.25467L14.2612 10.5107C14.1169 10.6549 13.883 10.6549 13.7392 10.5107L11.516 8.28747C11.2097 7.98118 10.7173 7.90689 10.3661 8.15965C9.91847 8.48187 9.88133 9.1099 10.2547 9.48276L12.5107 11.7392C12.6549 11.883 12.6549 12.1169 12.5107 12.2612L10.2875 14.4844C9.98118 14.7902 9.90689 15.2831 10.1596 15.6338C10.4819 16.0815 11.1099 16.1186 11.4828 15.7457L13.7392 13.4892C13.883 13.3455 14.1169 13.3455 14.2612 13.4892L16.4844 15.7129C16.7902 16.0187 17.2827 16.093 17.6338 15.8403C18.0815 15.5181 18.1186 14.89 17.7457 14.5172Z" fill="#DCDCDC"/>
</svg>
