<svg width="16" height="16" viewBox="0 0 16 16" fill="none" xmlns="http://www.w3.org/2000/svg">
<path d="M4.66634 4.66671V2.00004C4.66634 1.82323 4.73658 1.65366 4.8616 1.52864C4.98663 1.40361 5.1562 1.33337 5.33301 1.33337H13.9997C14.1765 1.33337 14.3461 1.40361 14.4711 1.52864C14.5961 1.65366 14.6663 1.82323 14.6663 2.00004V10.6667C14.6663 10.8435 14.5961 11.0131 14.4711 11.1381C14.3461 11.2631 14.1765 11.3334 13.9997 11.3334H11.333V13.9954C11.333 14.366 11.0337 14.6667 10.6617 14.6667H2.00434C1.91616 14.6668 1.82882 14.6495 1.74733 14.6158C1.66584 14.5821 1.5918 14.5326 1.52944 14.4703C1.46709 14.4079 1.41764 14.3339 1.38393 14.2524C1.35023 14.1709 1.33292 14.0836 1.33301 13.9954L1.33501 5.33804C1.33501 4.96737 1.63434 4.66671 2.00634 4.66671H4.66634ZM5.99967 4.66671H10.6617C11.0323 4.66671 11.333 4.96604 11.333 5.33804V10H13.333V2.66671H5.99967V4.66671ZM9.99967 6.00004H2.66834L2.66634 13.3334H9.99967V6.00004ZM5.66834 12L3.31101 9.64271L4.25367 8.70004L5.66834 10.1147L8.49634 7.28604L9.43901 8.22871L5.66834 12Z" fill="currentColor"/>
</svg>
