<svg width="24" height="24" viewBox="0 0 24 24" fill="none" xmlns="http://www.w3.org/2000/svg">
<g clip-path="url(#clip0_1673_7892)">
<path d="M12 19.0001H14V6.00011L20.394 8.74011C20.574 8.81727 20.7274 8.94559 20.8351 9.10913C20.9428 9.27268 21.0002 9.46426 21 9.66011V19.0001H23V21.0001H1V19.0001H3V5.65011C2.99998 5.45662 3.05608 5.26729 3.16151 5.10506C3.26695 4.94282 3.41718 4.81466 3.594 4.73611L11.297 1.31211C11.3732 1.27825 11.4567 1.26399 11.5398 1.27063C11.6229 1.27727 11.7031 1.30459 11.7729 1.35011C11.8428 1.39563 11.9002 1.4579 11.9398 1.53125C11.9795 1.60461 12.0002 1.68672 12 1.77011V19.0001Z" fill="currentColor"/>
</g>
<defs>
<clipPath id="clip0_1673_7892">
<rect width="24" height="24" fill="white"/>
</clipPath>
</defs>
</svg>
