<svg width="20" height="20" viewBox="0 0 20 20" fill="none" xmlns="http://www.w3.org/2000/svg">
<g clip-path="url(#clip0_1663_7670)">
<path d="M2.49998 15.8335V4.75018C2.49993 4.57912 2.55252 4.41218 2.65062 4.27204C2.74872 4.1319 2.88757 4.02535 3.04831 3.96684L11.1075 1.03684C11.1704 1.01393 11.238 1.00654 11.3044 1.01529C11.3708 1.02404 11.4342 1.04868 11.489 1.08711C11.5439 1.12555 11.5887 1.17664 11.6196 1.23608C11.6505 1.29551 11.6667 1.36152 11.6666 1.42851V5.55601L16.93 7.31018C17.096 7.36547 17.2404 7.47161 17.3427 7.61355C17.445 7.7555 17.5 7.92604 17.5 8.10101V15.8335H19.1666V17.5002H0.833313V15.8335H2.49998ZM4.16665 15.8335H9.99998V3.21268L4.16665 5.33434V15.8335ZM15.8333 15.8335V8.70184L11.6666 7.31268V15.8335H15.8333Z" fill="currentColor"/>
</g>
<defs>
<clipPath id="clip0_1663_7670">
<rect width="20" height="20" fill="white"/>
</clipPath>
</defs>
</svg>
