<svg width="75" height="96" viewBox="0 0 75 96" fill="none" xmlns="http://www.w3.org/2000/svg">
<g clip-path="url(#clip0_5026_5489)">
<path opacity="0.65" d="M73.9373 24.3044L51.053 1.48104C50.7377 1.16497 50.363 0.91406 49.9502 0.742696C49.5375 0.571333 49.0949 0.482887 48.6478 0.482427H3.46328C3.01544 0.481631 2.57185 0.569056 2.15798 0.739684C1.74411 0.910311 1.36812 1.16078 1.05158 1.47671C0.735053 1.79264 0.484218 2.16781 0.31348 2.58067C0.142743 2.99353 0.0554662 3.43596 0.0566622 3.88255V92.1229C0.0550651 92.5696 0.142068 93.0122 0.312663 93.4253C0.483258 93.8383 0.734079 94.2136 1.05069 94.5296C1.3673 94.8457 1.74346 95.0961 2.1575 95.2666C2.57155 95.4371 3.01532 95.5242 3.46328 95.523H71.5351C71.9831 95.5238 72.4268 95.4364 72.8408 95.2658C73.2549 95.0952 73.6311 94.8448 73.9478 94.5289C74.2646 94.213 74.5157 93.8379 74.6868 93.425C74.8579 93.0121 74.9455 92.5696 74.9447 92.1229V26.715C74.9447 25.8099 74.5817 24.944 73.9403 24.3044H73.9373ZM67.2813 87.881H7.71701V8.11536L47.0716 8.30845L67.0877 28.2687L67.2813 87.878V87.881Z" fill="#7171EE"/>
<path d="M19.5432 37.7392L16.5299 40.7441C16.3707 40.9035 16.2813 41.1194 16.2812 41.3445C16.2813 41.5695 16.3707 41.7854 16.5299 41.9448L27.376 52.7607C27.7088 53.0926 28.2473 53.0926 28.5801 52.7607L31.5934 49.7558C31.7527 49.5963 31.8421 49.3804 31.8421 49.1554C31.8421 48.9304 31.7527 48.7145 31.5934 48.555L20.7473 37.7392C20.5874 37.5804 20.371 37.4912 20.1453 37.4912C19.9196 37.4912 19.7031 37.5804 19.5432 37.7392Z" fill="#7171EE"/>
<path d="M27.376 37.7423L16.5299 48.5551C16.3707 48.7146 16.2812 48.9304 16.2812 49.1555C16.2812 49.3805 16.3707 49.5964 16.5299 49.7559L19.5432 52.7608C19.876 53.0926 20.4145 53.0926 20.7473 52.7608L31.5934 41.9449C31.7527 41.7855 31.8421 41.5696 31.8421 41.3446C31.8421 41.1195 31.7527 40.9036 31.5934 40.7442L28.5801 37.7393C28.4202 37.5805 28.2038 37.4913 27.9781 37.4913C27.7524 37.4913 27.5359 37.5805 27.376 37.7393V37.7423ZM46.418 37.7363L43.4047 40.7412C43.3254 40.8202 43.2624 40.914 43.2195 41.0173C43.1766 41.1205 43.1545 41.2312 43.1545 41.343C43.1545 41.4548 43.1766 41.5655 43.2195 41.6688C43.2624 41.7721 43.3254 41.8659 43.4047 41.9449L54.2508 52.7608C54.5836 53.0926 55.1221 53.0926 55.4549 52.7608L58.4682 49.7559C58.5475 49.6769 58.6104 49.583 58.6534 49.4797C58.6963 49.3765 58.7184 49.2658 58.7184 49.154C58.7184 49.0422 58.6963 48.9315 58.6534 48.8282C58.6104 48.7249 58.5475 48.6311 58.4682 48.5521L47.6221 37.7363C47.4622 37.5774 47.2457 37.4883 47.02 37.4883C46.7944 37.4883 46.5779 37.5774 46.418 37.7363Z" fill="#7171EE"/>
<path d="M54.2508 37.7422L43.4047 48.555C43.2454 48.7145 43.156 48.9304 43.156 49.1554C43.156 49.3804 43.2454 49.5963 43.4047 49.7558L46.418 52.7607C46.7508 53.0926 47.2893 53.0926 47.6221 52.7607L58.4682 41.9448C58.6275 41.7854 58.7169 41.5695 58.7169 41.3445C58.7169 41.1194 58.6275 40.9035 58.4682 40.7441L55.4549 37.7392C55.295 37.5804 55.0785 37.4912 54.8528 37.4912C54.6272 37.4912 54.4107 37.5804 54.2508 37.7392V37.7422ZM47.3014 65.3083H27.6967C27.4715 65.3099 27.256 65.4002 27.0974 65.5596C26.9387 65.719 26.8496 65.9344 26.8496 66.159V70.4069C26.8496 70.8776 27.2278 71.2577 27.6967 71.2577H47.3014C47.5266 71.2561 47.7421 71.1658 47.9008 71.0064C48.0595 70.847 48.1485 70.6315 48.1485 70.4069V66.1621C48.1485 65.9375 48.0595 65.722 47.9008 65.5626C47.7421 65.4032 47.5266 65.3129 47.3014 65.3113V65.3083Z" fill="#7171EE"/>
</g>
<defs>
<clipPath id="clip0_5026_5489">
<rect width="75" height="96" fill="white"/>
</clipPath>
</defs>
</svg>
