<svg width="16" height="16" viewBox="0 0 16 16" fill="none" xmlns="http://www.w3.org/2000/svg">
<path d="M3.64216 2.95532C4.85187 1.90709 6.39949 1.33109 8.00016 1.33332C11.6822 1.33332 14.6668 4.31799 14.6668 7.99999C14.6668 9.42399 14.2202 10.744 13.4602 11.8267L11.3335 7.99999H13.3335C13.3336 6.9544 13.0263 5.93186 12.4499 5.05949C11.8735 4.18712 11.0535 3.50343 10.0916 3.0934C9.12978 2.68338 8.06864 2.56512 7.04013 2.75333C6.01163 2.94154 5.06113 3.42792 4.30683 4.15199L3.64216 2.95532ZM12.3582 13.0447C11.1485 14.0929 9.60084 14.6689 8.00016 14.6667C4.31816 14.6667 1.3335 11.682 1.3335 7.99999C1.3335 6.57599 1.78016 5.25599 2.54016 4.17332L4.66683 7.99999H2.66683C2.66674 9.04557 2.974 10.0681 3.55039 10.9405C4.12678 11.8128 4.94687 12.4965 5.90871 12.9066C6.87055 13.3166 7.93169 13.4349 8.96019 13.2466C9.9887 13.0584 10.9392 12.5721 11.6935 11.848L12.3582 13.0447Z" fill="#currentColor"/>
</svg>
