<svg width="16" height="16" viewBox="0 0 16 16" fill="none" xmlns="http://www.w3.org/2000/svg">
<g clip-path="url(#clip0_4364_8982)">
<path d="M14.0007 2C14.1775 2 14.347 2.07024 14.4721 2.19526C14.5971 2.32029 14.6673 2.48986 14.6673 2.66667V4.66667H13.334V3.33333H2.66732V12.6667H8.66732V14H2.00065C1.82384 14 1.65427 13.9298 1.52925 13.8047C1.40422 13.6797 1.33398 13.5101 1.33398 13.3333V2.66667C1.33398 2.48986 1.40422 2.32029 1.52925 2.19526C1.65427 2.07024 1.82384 2 2.00065 2H14.0007ZM14.0007 5.33333C14.1775 5.33333 14.347 5.40357 14.4721 5.5286C14.5971 5.65362 14.6673 5.82319 14.6673 6V13.3333C14.6673 13.5101 14.5971 13.6797 14.4721 13.8047C14.347 13.9298 14.1775 14 14.0007 14H10.0007C9.82384 14 9.65427 13.9298 9.52925 13.8047C9.40422 13.6797 9.33398 13.5101 9.33398 13.3333V6C9.33398 5.82319 9.40422 5.65362 9.52925 5.5286C9.65427 5.40357 9.82384 5.33333 10.0007 5.33333H14.0007ZM13.334 6.66667H10.6673V12.6667H13.334V6.66667ZM7.66732 4.66667L6.30532 6.02867L8.47198 8.19533L7.52932 9.138L5.36265 6.97133L4.00065 8.33333V4.66667H7.66732Z" fill="currentColor"/>
</g>
<defs>
<clipPath id="clip0_4364_8982">
<rect width="16" height="16" fill="white"/>
</clipPath>
</defs>
</svg>
