<svg width="16" height="16" viewBox="0 0 16 16" fill="none" xmlns="http://www.w3.org/2000/svg">
<path fill-rule="evenodd" clip-rule="evenodd" d="M5.1204 12.8449C4.94718 12.6525 4.96271 12.3561 5.1551 12.1829L9.81727 7.98506L5.1551 3.78722C4.96271 3.61399 4.94718 3.3176 5.1204 3.12521C5.29363 2.93283 5.59002 2.91729 5.78241 3.09052L10.7411 7.55531C10.7916 7.58075 10.8383 7.61582 10.8784 7.66037C10.9618 7.75295 11.0014 7.86962 10.9987 7.98506C11.0014 8.10049 10.9618 8.21716 10.8784 8.30974C10.8383 8.3543 10.7916 8.38937 10.7411 8.41481L5.78241 12.8796C5.59002 13.0528 5.29363 13.0373 5.1204 12.8449Z" fill="#7171EE"/>
</svg>
