<svg width="24" height="24" viewBox="0 0 24 24" fill="none" xmlns="http://www.w3.org/2000/svg">
<g clip-path="url(#clip0_929_1810)">
<path d="M14.6 16.0001H21C21.5304 16.0001 22.0391 15.7894 22.4142 15.4143C22.7893 15.0392 23 14.5305 23 14.0001V11.8961C23.0003 11.6347 22.9493 11.3759 22.85 11.1341L19.755 3.61909C19.6795 3.43588 19.5513 3.27922 19.3866 3.16901C19.2219 3.0588 19.0282 3.00001 18.83 3.0001H2C1.73478 3.0001 1.48043 3.10545 1.29289 3.29299C1.10536 3.48052 1 3.73488 1 4.0001V14.0001C1 14.2653 1.10536 14.5197 1.29289 14.7072C1.48043 14.8947 1.73478 15.0001 2 15.0001H5.482C5.6421 15.0001 5.79986 15.0385 5.94203 15.1121C6.08421 15.1857 6.20662 15.2923 6.299 15.4231L11.752 23.1501C11.8209 23.2478 11.9226 23.3175 12.0385 23.3467C12.1545 23.3759 12.277 23.3625 12.384 23.3091L14.198 22.4021C14.7085 22.1469 15.1163 21.7248 15.3537 21.2058C15.5911 20.6868 15.6438 20.1022 15.503 19.5491L14.6 16.0001ZM7 13.4121V5.0001H18.16L21 11.8961V14.0001H14.6C14.2954 14.0001 13.9948 14.0698 13.7212 14.2036C13.4476 14.3375 13.2082 14.5321 13.0213 14.7726C12.8343 15.0131 12.7048 15.2931 12.6425 15.5913C12.5803 15.8894 12.5869 16.1979 12.662 16.4931L13.565 20.0411C13.5933 20.1518 13.5828 20.2688 13.5353 20.3727C13.4878 20.4766 13.4062 20.561 13.304 20.6121L12.643 20.9421L7.933 14.2701C7.683 13.9161 7.363 13.6261 7 13.4121V13.4121ZM5 13.0001H3V5.0001H5V13.0001Z" fill="currentColor"/>
<rect width="4.5" height="9" transform="matrix(1 0 0 -1 1.5 13.5)" fill="currentColor"/>
</g>
<defs>
<clipPath id="clip0_929_1810">
<rect width="24" height="24" fill="white" transform="matrix(1 0 0 -1 0 24)"/>
</clipPath>
</defs>
</svg>
