<svg width="12" height="12" viewBox="0 0 12 12" fill="none" xmlns="http://www.w3.org/2000/svg">
<path d="M9.28038 3.876L6.21538 7.63C6.19334 7.66765 6.16183 7.69888 6.12398 7.72058C6.08613 7.74228 6.04326 7.7537 5.99963 7.7537C5.956 7.7537 5.91313 7.74228 5.87528 7.72058C5.83743 7.69888 5.80592 7.66765 5.78388 7.63L2.71888 3.876C2.69666 3.83794 2.68491 3.79467 2.6848 3.7506C2.6847 3.70653 2.69625 3.66321 2.71828 3.62504C2.74031 3.58686 2.77204 3.55519 2.81025 3.53324C2.84847 3.51128 2.89181 3.49981 2.93588 3.5L9.06438 3.5C9.10837 3.49999 9.15158 3.51158 9.18966 3.53361C9.22773 3.55564 9.25932 3.58733 9.28123 3.62547C9.30314 3.66361 9.3146 3.70686 9.31445 3.75085C9.3143 3.79484 9.30255 3.83801 9.28038 3.876Z" fill="currentColor"/>
</svg>
