<svg width="48" height="29" viewBox="0 0 48 29" fill="none" xmlns="http://www.w3.org/2000/svg">
<g clip-path="url(#clip0_1967_3497)">
<path d="M0 23.5C0 26.5375 10.7453 29 24 29C37.2547 29 48 26.5375 48 23.5C48 20.4621 37.2547 18 24 18C10.7453 18 0 20.4617 0 23.5Z" fill="#7171EE" fill-opacity="0.2"/>
<path d="M22 0.264582V19.3338L40 23V2.15375L22 0" fill="#BBBBFF"/>
<path d="M22 0V18.6494L7 23V3.13898L22 0Z" fill="#D7D7FF"/>
<g clip-path="url(#clip1_1967_3497)">
<path d="M23.3922 0.987397C23.4591 0.649802 23.7957 0.441466 24.1274 0.532326C24.4319 0.615709 24.6214 0.922354 24.5599 1.23216L22.8865 9.67415C22.8196 10.0117 22.483 10.2201 22.1512 10.1292C21.8468 10.0458 21.6573 9.7392 21.7187 9.42938L23.3922 0.987397Z" fill="white"/>
<path d="M30.4794 1.23232C30.418 0.922506 30.6075 0.615861 30.9119 0.532478C31.2436 0.441618 31.5802 0.649955 31.6471 0.98755L33.3206 9.42954C33.382 9.73935 33.1925 10.046 32.8881 10.1294C32.5564 10.2202 32.2198 10.0119 32.1528 9.6743L30.4794 1.23232Z" fill="white"/>
<path d="M23.75 1.39062L27.5 4.20312L30.7812 1.39062L33.5938 12.1719H22.3438L23.75 1.39062Z" fill="white"/>
<path fill-rule="evenodd" clip-rule="evenodd" d="M23.5785 0.534753C23.3453 0.773148 23.3453 1.15966 23.5785 1.39806L27.0674 4.96464C27.1887 5.08861 27.3492 5.14811 27.5081 5.14315C27.667 5.14811 27.8274 5.08861 27.9487 4.96464L31.4377 1.39806C31.6709 1.15966 31.6709 0.773148 31.4377 0.534753C31.2045 0.296358 30.8264 0.296358 30.5932 0.534753L27.5081 3.68845L24.423 0.534753C24.1898 0.296358 23.8117 0.296358 23.5785 0.534753Z" fill="white"/>
<circle cx="25.625" cy="6.07812" r="0.703125" fill="black"/>
<circle cx="25.1562" cy="5.60938" r="0.234375" fill="white"/>
<circle cx="29.375" cy="6.07812" r="0.703125" fill="black"/>
<circle cx="28.9062" cy="5.60938" r="0.234375" fill="white"/>
</g>
<path d="M24 5.19483V27L40 22.4781V2L24 5.19483Z" fill="#A0A0F9"/>
<path d="M24 27L7 23.5145V3L24 5.14761" fill="#7171EE"/>
<path d="M24.0004 5.26356L29.0995 13.7521C29.0995 13.7521 29.1371 14.2107 29.9118 13.8804L44.8321 9.31552C44.8321 9.31552 45.2099 9.09524 44.8321 8.65545L39.7326 2L24 5.26356H24.0004Z" fill="#D0D0FF"/>
<path d="M25 5.17339L7.03428 3L3 10.7403L20.9845 14L25 5.17339Z" fill="#D0D0FF"/>
</g>
<defs>
<clipPath id="clip0_1967_3497">
<rect width="48" height="29" fill="white"/>
</clipPath>
<clipPath id="clip1_1967_3497">
<rect x="20" y="-4" width="15" height="15" rx="7.5" fill="white"/>
</clipPath>
</defs>
</svg>
