<svg width="32" height="32" viewBox="0 0 32 32" fill="none" xmlns="http://www.w3.org/2000/svg">
<path d="M13.334 14.6665V10.6665L20.0007 15.9998L13.334 21.3332V17.3332H1.33398V14.6665H13.334ZM3.27798 19.9998H6.10998C7.04071 22.2919 8.73893 24.1894 10.9141 25.3678C13.0894 26.5461 15.6064 26.932 18.0347 26.4595C20.463 25.987 22.6517 24.6855 24.2264 22.7775C25.8011 20.8695 26.6639 18.4737 26.6673 15.9998C26.6687 13.5234 25.8084 11.1236 24.2339 9.21213C22.6593 7.30065 20.4688 5.99658 18.0379 5.52359C15.6071 5.0506 13.0874 5.43816 10.911 6.61981C8.73466 7.80145 7.03727 9.70355 6.10998 11.9998H3.27798C4.97665 6.5905 10.03 2.6665 16.0007 2.6665C23.3647 2.6665 29.334 8.63584 29.334 15.9998C29.334 23.3638 23.3647 29.3332 16.0007 29.3332C10.03 29.3332 4.97665 25.4092 3.27798 19.9998Z" fill="currentColor"/>
</svg>
