<svg width="40" height="40" viewBox="0 0 40 40" fill="none" xmlns="http://www.w3.org/2000/svg">
<g clip-path="url(#clip0_1137_1734)">
<circle cx="20" cy="20" r="20" fill="url(#paint0_linear_1137_1734)"/>
<path d="M11.1333 11.6026C9.97085 11.2842 8.79133 12.0143 8.55682 13.1973L4.09422 35.7093C3.87901 36.7949 4.54311 37.8695 5.60986 38.1617C6.77227 38.4801 7.9518 37.75 8.18631 36.567L12.6489 14.055C12.8641 12.9694 12.2 11.8948 11.1333 11.6026Z" fill="white" stroke="white"/>
<path d="M28.9716 11.6029C27.9048 11.8951 27.2407 12.9697 27.456 14.0553L31.9186 36.5673C32.1531 37.7503 33.3326 38.4804 34.495 38.162C35.5618 37.8698 36.2259 36.7952 36.0106 35.7096L31.548 13.1976C31.3135 12.0146 30.134 11.2845 28.9716 11.6029Z" fill="white" stroke="white"/>
<g filter="url(#filter0_d_1137_1734)">
<mask id="path-5-outside-1_1137_1734" maskUnits="userSpaceOnUse" x="8.07605" y="10.6162" width="24" height="15" fill="black">
<rect fill="white" x="8.07605" y="10.6162" width="24" height="15"/>
<path fill-rule="evenodd" clip-rule="evenodd" d="M9.54247 12.093C8.92058 12.7287 8.92058 13.7594 9.54247 14.3951L18.8464 23.906C19.1698 24.2366 19.5977 24.3953 20.0214 24.3821C20.4451 24.3953 20.873 24.2366 21.1964 23.906L30.5003 14.3951C31.1222 13.7594 31.1222 12.7287 30.5003 12.093C29.8785 11.4573 28.8702 11.4573 28.2483 12.093L20.0214 20.5029L11.7945 12.093C11.1726 11.4573 10.1644 11.4573 9.54247 12.093Z"/>
</mask>
<path fill-rule="evenodd" clip-rule="evenodd" d="M9.54247 12.093C8.92058 12.7287 8.92058 13.7594 9.54247 14.3951L18.8464 23.906C19.1698 24.2366 19.5977 24.3953 20.0214 24.3821C20.4451 24.3953 20.873 24.2366 21.1964 23.906L30.5003 14.3951C31.1222 13.7594 31.1222 12.7287 30.5003 12.093C29.8785 11.4573 28.8702 11.4573 28.2483 12.093L20.0214 20.5029L11.7945 12.093C11.1726 11.4573 10.1644 11.4573 9.54247 12.093Z" fill="white"/>
<path d="M9.54247 14.3951L8.82762 15.0944H8.82762L9.54247 14.3951ZM9.54247 12.093L8.82762 11.3937L9.54247 12.093ZM18.8464 23.906L19.5613 23.2067V23.2067L18.8464 23.906ZM20.0214 24.3821L20.0526 23.3825L20.0214 23.3816L19.9902 23.3825L20.0214 24.3821ZM21.1964 23.906L20.4816 23.2067V23.2067L21.1964 23.906ZM30.5003 14.3951L29.7855 13.6959L30.5003 14.3951ZM30.5003 12.093L29.7855 12.7923L29.7855 12.7923L30.5003 12.093ZM28.2483 12.093L27.5334 11.3937V11.3937L28.2483 12.093ZM20.0214 20.5029L19.3066 21.2022L20.0214 21.9329L20.7362 21.2022L20.0214 20.5029ZM11.7945 12.093L12.5094 11.3937V11.3937L11.7945 12.093ZM10.2573 13.6959C10.0156 13.4488 10.0156 13.0393 10.2573 12.7923L8.82762 11.3937C7.82553 12.4181 7.82553 14.07 8.82762 15.0944L10.2573 13.6959ZM19.5613 23.2067L10.2573 13.6959L8.82762 15.0944L18.1316 24.6053L19.5613 23.2067ZM19.9902 23.3825C19.8381 23.3873 19.6833 23.3315 19.5613 23.2067L18.1316 24.6053C18.6563 25.1417 19.3573 25.4033 20.0526 25.3816L19.9902 23.3825ZM19.9902 25.3816C20.6855 25.4033 21.3865 25.1417 21.9112 24.6053L20.4816 23.2067C20.3595 23.3315 20.2047 23.3873 20.0526 23.3825L19.9902 25.3816ZM21.9112 24.6053L31.2152 15.0944L29.7855 13.6959L20.4816 23.2067L21.9112 24.6053ZM31.2152 15.0944C32.2173 14.07 32.2173 12.4181 31.2152 11.3937L29.7855 12.7923C30.0272 13.0393 30.0272 13.4488 29.7855 13.6959L31.2152 15.0944ZM31.2152 11.3937C30.2011 10.357 28.5476 10.357 27.5334 11.3937L28.9631 12.7923C29.1928 12.5575 29.5558 12.5575 29.7855 12.7923L31.2152 11.3937ZM27.5334 11.3937L19.3066 19.8036L20.7362 21.2022L28.9631 12.7923L27.5334 11.3937ZM11.0797 12.7923L19.3066 21.2022L20.7362 19.8036L12.5094 11.3937L11.0797 12.7923ZM10.2573 12.7923C10.487 12.5575 10.85 12.5575 11.0797 12.7923L12.5094 11.3937C11.4952 10.357 9.84174 10.357 8.82762 11.3937L10.2573 12.7923Z" fill="white" mask="url(#path-5-outside-1_1137_1734)"/>
</g>
<circle cx="20" cy="20" r="20" fill="url(#paint1_linear_1137_1734)"/>
</g>
<defs>
<filter id="filter0_d_1137_1734" x="4.07605" y="7.61621" width="31.8907" height="22.7666" filterUnits="userSpaceOnUse" color-interpolation-filters="sRGB">
<feFlood flood-opacity="0" result="BackgroundImageFix"/>
<feColorMatrix in="SourceAlpha" type="matrix" values="0 0 0 0 0 0 0 0 0 0 0 0 0 0 0 0 0 0 127 0" result="hardAlpha"/>
<feOffset dy="1"/>
<feGaussianBlur stdDeviation="2"/>
<feComposite in2="hardAlpha" operator="out"/>
<feColorMatrix type="matrix" values="0 0 0 0 0.443137 0 0 0 0 0.443137 0 0 0 0 0.933333 0 0 0 0.5 0"/>
<feBlend mode="normal" in2="BackgroundImageFix" result="effect1_dropShadow_1137_1734"/>
<feBlend mode="normal" in="SourceGraphic" in2="effect1_dropShadow_1137_1734" result="shape"/>
</filter>
<linearGradient id="paint0_linear_1137_1734" x1="20" y1="18.125" x2="20" y2="40" gradientUnits="userSpaceOnUse">
<stop stop-color="#7171EE"/>
<stop offset="1" stop-color="#69A5FF"/>
</linearGradient>
<linearGradient id="paint1_linear_1137_1734" x1="20" y1="28.4375" x2="20" y2="40" gradientUnits="userSpaceOnUse">
<stop stop-color="#7171EE" stop-opacity="0"/>
<stop offset="1" stop-color="#7171EE" stop-opacity="0.35"/>
</linearGradient>
<clipPath id="clip0_1137_1734">
<rect width="40" height="40" rx="20" fill="white"/>
</clipPath>
</defs>
</svg>
