<svg width="16" height="16" viewBox="0 0 16 16" fill="none" xmlns="http://www.w3.org/2000/svg">
<path d="M3.21859 14L3.20525 14.0133L3.19125 14H1.99459C1.81913 13.9998 1.65092 13.93 1.52691 13.8059C1.40291 13.6817 1.33325 13.5135 1.33325 13.338V2.662C1.33447 2.48692 1.40452 2.31934 1.52826 2.19548C1.652 2.07161 1.81951 2.0014 1.99459 2H14.0053C14.3706 2 14.6666 2.29667 14.6666 2.662V13.338C14.6654 13.5131 14.5953 13.6807 14.4716 13.8045C14.3478 13.9284 14.1803 13.9986 14.0053 14H3.21859ZM13.3333 10V3.33333H2.66659V12.6667L9.33325 6L13.3333 10ZM13.3333 11.8853L9.33325 7.88533L4.55192 12.6667H13.3333V11.8853ZM5.33325 7.33333C4.97963 7.33333 4.64049 7.19286 4.39044 6.94281C4.14039 6.69276 3.99992 6.35362 3.99992 6C3.99992 5.64638 4.14039 5.30724 4.39044 5.05719C4.64049 4.80714 4.97963 4.66667 5.33325 4.66667C5.68687 4.66667 6.02601 4.80714 6.27606 5.05719C6.52611 5.30724 6.66659 5.64638 6.66659 6C6.66659 6.35362 6.52611 6.69276 6.27606 6.94281C6.02601 7.19286 5.68687 7.33333 5.33325 7.33333Z" fill="currentColor"/>
</svg>
