<svg width="24" height="24" viewBox="0 0 24 24" fill="none" xmlns="http://www.w3.org/2000/svg">
<circle cx="12" cy="12" r="12" fill="url(#paint0_linear_793_941)"/>
<path d="M6.73067 6.76811C5.92209 6.54663 5.1016 7.05447 4.93847 7.87738L2.26092 21.3846C2.11121 22.1397 2.57317 22.8872 3.3152 23.0905C4.12379 23.3119 4.94427 22.8041 5.1074 21.9812L7.78496 8.47402C7.93466 7.71883 7.47271 6.97136 6.73067 6.76811Z" fill="white" stroke="white"/>
<path d="M17.3321 6.76828C16.59 6.97153 16.1281 7.719 16.2778 8.47419L18.9553 21.9814C19.1184 22.8043 19.9389 23.3121 20.7475 23.0906C21.4896 22.8874 21.9515 22.1399 21.8018 21.3847L19.1242 7.87755C18.9611 7.05464 18.1406 6.5468 17.3321 6.76828Z" fill="white" stroke="white"/>
<g filter="url(#filter0_d_793_941)">
<mask id="path-4-outside-1_793_941" maskUnits="userSpaceOnUse" x="4.44531" y="5.96973" width="16" height="10" fill="black">
<rect fill="white" x="4.44531" y="5.96973" width="16" height="10"/>
<path fill-rule="evenodd" clip-rule="evenodd" d="M5.72516 7.2558C5.35203 7.63723 5.35203 8.25565 5.72516 8.63709L11.3075 14.3436C11.5016 14.542 11.7583 14.6372 12.0125 14.6292C12.2667 14.6372 12.5235 14.542 12.7175 14.3436L18.2999 8.63709C18.673 8.25565 18.673 7.63723 18.2999 7.2558C17.9268 6.87437 17.3218 6.87437 16.9487 7.2558L12.0125 12.3017L7.07639 7.2558C6.70326 6.87437 6.09829 6.87437 5.72516 7.2558Z"/>
</mask>
<path fill-rule="evenodd" clip-rule="evenodd" d="M5.72516 7.2558C5.35203 7.63723 5.35203 8.25565 5.72516 8.63709L11.3075 14.3436C11.5016 14.542 11.7583 14.6372 12.0125 14.6292C12.2667 14.6372 12.5235 14.542 12.7175 14.3436L18.2999 8.63709C18.673 8.25565 18.673 7.63723 18.2999 7.2558C17.9268 6.87437 17.3218 6.87437 16.9487 7.2558L12.0125 12.3017L7.07639 7.2558C6.70326 6.87437 6.09829 6.87437 5.72516 7.2558Z" fill="white"/>
<path d="M5.72516 8.63709L5.01032 9.33637L5.01032 9.33637L5.72516 8.63709ZM5.72516 7.2558L5.01032 6.55651L5.01032 6.55651L5.72516 7.2558ZM11.3075 14.3436L12.0224 13.6443L11.3075 14.3436ZM12.0125 14.6292L12.0438 13.6297L12.0125 13.6287L11.9813 13.6297L12.0125 14.6292ZM12.7175 14.3436L12.0027 13.6443L12.7175 14.3436ZM18.2999 8.63709L19.0147 9.33637L19.0147 9.33637L18.2999 8.63709ZM18.2999 7.2558L19.0147 6.55651L19.0147 6.55651L18.2999 7.2558ZM16.9487 7.2558L17.6635 7.95509V7.95509L16.9487 7.2558ZM12.0125 12.3017L11.2977 13.001L12.0125 13.7317L12.7274 13.001L12.0125 12.3017ZM7.07639 7.2558L6.36155 7.95509L7.07639 7.2558ZM6.44 7.9378C6.4407 7.93851 6.44172 7.93973 6.44274 7.9413C6.44373 7.94283 6.4444 7.9442 6.44481 7.94524C6.44554 7.9471 6.44531 7.94741 6.44531 7.94644C6.44531 7.94548 6.44554 7.94579 6.44481 7.94764C6.4444 7.94868 6.44373 7.95006 6.44274 7.95158C6.44172 7.95316 6.4407 7.95437 6.44 7.95509L5.01032 6.55651C4.25698 7.32661 4.25698 8.56627 5.01032 9.33637L6.44 7.9378ZM12.0224 13.6443L6.44 7.9378L5.01032 9.33637L10.5927 15.0429L12.0224 13.6443ZM11.9813 13.6297C11.9892 13.6295 11.9975 13.6308 12.0056 13.634C12.0145 13.6375 12.0202 13.6421 12.0224 13.6443L10.5927 15.0429C10.9881 15.4471 11.5179 15.6452 12.0438 15.6287L11.9813 13.6297ZM11.9813 15.6287C12.5071 15.6452 13.037 15.4471 13.4324 15.0429L12.0027 13.6443C12.0048 13.6421 12.0106 13.6375 12.0194 13.634C12.0275 13.6308 12.0358 13.6295 12.0438 13.6297L11.9813 15.6287ZM13.4324 15.0429L19.0147 9.33637L17.585 7.9378L12.0027 13.6443L13.4324 15.0429ZM19.0147 9.33637C19.7681 8.56627 19.7681 7.32661 19.0147 6.55651L17.585 7.95509C17.5843 7.95437 17.5833 7.95316 17.5823 7.95158C17.5813 7.95006 17.5807 7.94868 17.5802 7.94764C17.5795 7.94579 17.5797 7.94548 17.5797 7.94644C17.5797 7.94741 17.5795 7.9471 17.5802 7.94524C17.5807 7.9442 17.5813 7.94283 17.5823 7.9413C17.5833 7.93973 17.5843 7.93852 17.585 7.9378L19.0147 9.33637ZM19.0147 6.55651C18.2494 5.77413 16.9992 5.77413 16.2338 6.55651L17.6635 7.95509C17.6615 7.95713 17.6561 7.96154 17.6477 7.96502C17.6399 7.96823 17.6319 7.96973 17.6243 7.96973C17.6166 7.96973 17.6086 7.96823 17.6009 7.96502C17.5925 7.96154 17.587 7.95713 17.585 7.95509L19.0147 6.55651ZM16.2338 6.55651L11.2977 11.6024L12.7274 13.001L17.6635 7.95509L16.2338 6.55651ZM6.36155 7.95509L11.2977 13.001L12.7274 11.6024L7.79123 6.55651L6.36155 7.95509ZM6.44 7.95509C6.43801 7.95713 6.43258 7.96154 6.42417 7.96502C6.41642 7.96823 6.40844 7.96973 6.40078 7.96973C6.39312 7.96973 6.38513 7.96823 6.37738 7.96502C6.36898 7.96154 6.36355 7.95713 6.36155 7.95509L7.79123 6.55651C7.02588 5.77413 5.77568 5.77413 5.01032 6.55651L6.44 7.95509Z" fill="white" mask="url(#path-4-outside-1_793_941)"/>
</g>
<circle cx="12" cy="12" r="12" fill="url(#paint1_linear_793_941)"/>
<defs>
<filter id="filter0_d_793_941" x="0.445312" y="2.96973" width="23.1348" height="17.6599" filterUnits="userSpaceOnUse" color-interpolation-filters="sRGB">
<feFlood flood-opacity="0" result="BackgroundImageFix"/>
<feColorMatrix in="SourceAlpha" type="matrix" values="0 0 0 0 0 0 0 0 0 0 0 0 0 0 0 0 0 0 127 0" result="hardAlpha"/>
<feOffset dy="1"/>
<feGaussianBlur stdDeviation="2"/>
<feComposite in2="hardAlpha" operator="out"/>
<feColorMatrix type="matrix" values="0 0 0 0 0.443137 0 0 0 0 0.443137 0 0 0 0 0.933333 0 0 0 0.5 0"/>
<feBlend mode="normal" in2="BackgroundImageFix" result="effect1_dropShadow_793_941"/>
<feBlend mode="normal" in="SourceGraphic" in2="effect1_dropShadow_793_941" result="shape"/>
</filter>
<linearGradient id="paint0_linear_793_941" x1="12" y1="10.875" x2="12" y2="24" gradientUnits="userSpaceOnUse">
<stop stop-color="#7171EE"/>
<stop offset="1" stop-color="#69A5FF"/>
</linearGradient>
<linearGradient id="paint1_linear_793_941" x1="12" y1="17.0625" x2="12" y2="24" gradientUnits="userSpaceOnUse">
<stop stop-color="#7171EE" stop-opacity="0"/>
<stop offset="1" stop-color="#7171EE" stop-opacity="0.35"/>
</linearGradient>
</defs>
</svg>
