<svg width="16" height="16" viewBox="0 0 16 16" fill="none" xmlns="http://www.w3.org/2000/svg">
<path d="M3.71429 13.1968V5.48073C3.74682 5.36896 3.82936 5.30253 3.96325 5.31913L7.44358 7.20215C7.47762 7.22057 7.51245 7.23655 7.54784 7.25015C7.80555 7.39301 8.13578 7.40498 8.41356 7.25469L11.978 5.32618C12.1823 5.27955 12.2826 5.40815 12.2826 5.60349C12.2827 5.61045 12.2838 5.61628 12.2857 5.62105V13.1968C12.2857 13.6404 12.6695 14 13.1429 14C13.6162 14 14 13.6404 14 13.1968V3.89657C14 3.71508 13.9358 3.54765 13.8274 3.41315C13.8252 3.40934 13.8229 3.40554 13.8206 3.40176C13.5839 3.01757 13.0596 2.88594 12.6497 3.10775L7.97712 5.63581L3.30457 3.10775C2.8946 2.88594 2.37038 3.01757 2.13369 3.40176C2.07516 3.49676 2.03969 3.59832 2.02566 3.70073C2.0089 3.76342 2 3.82902 2 3.89657V13.1968C2 13.6404 2.38376 14 2.85714 14C3.33053 14 3.71429 13.6404 3.71429 13.1968Z" fill="currentColor"/>
<circle cx="6" cy="10" r="1" fill="currentColor"/>
<circle cx="10" cy="10" r="1" fill="currentColor"/>
</svg>
