<svg width="100" height="67" viewBox="0 0 100 67" fill="none" xmlns="http://www.w3.org/2000/svg">
<g clip-path="url(#clip0_5796_12590)">
<path d="M11 2.94042C11 1.54846 12.1304 0.420044 13.5248 0.420044C14.9192 0.420044 16.0496 1.54845 16.0496 2.94042V28.9843C16.0496 30.3762 14.9192 31.5047 13.5248 31.5047C12.1304 31.5047 11 30.3762 11 28.9843V2.94042Z" fill="currentColor"/>
<path d="M12.3175 4.83071C11.1099 4.13473 10.6962 2.59329 11.3934 1.38781C12.0906 0.182329 13.6347 -0.230698 14.8423 0.465285L29.5592 8.94707C30.7668 9.64305 31.1805 11.1845 30.4833 12.39C29.7861 13.5954 28.2419 14.0085 27.0343 13.3125L12.3175 4.83071Z" fill="currentColor"/>
<path d="M44.8941 4.83071C46.1016 4.13473 46.5154 2.59329 45.8182 1.38781C45.1209 0.182329 43.5767 -0.230698 42.3692 0.465285L27.3663 9.11192C26.1587 9.80791 25.745 11.3493 26.4422 12.5548C27.1394 13.7603 28.6836 14.1733 29.8912 13.4773L44.8941 4.83071Z" fill="currentColor"/>
<path d="M41.2988 2.94042C41.2988 1.54846 42.4293 0.420044 43.8237 0.420044C45.218 0.420044 46.3485 1.54845 46.3485 2.94042V28.9843C46.3485 30.3762 45.218 31.5047 43.8237 31.5047C42.4293 31.5047 41.2988 30.3762 41.2988 28.9843V2.94042Z" fill="currentColor"/>
<path d="M22.3616 23.1034C23.9885 23.1034 25.3073 21.7869 25.3073 20.163C25.3073 18.539 23.9885 17.2225 22.3616 17.2225C20.7348 17.2225 19.416 18.539 19.416 20.163C19.416 21.7869 20.7348 23.1034 22.3616 23.1034Z" fill="#212121"/>
<path d="M34.9866 23.1034C36.6135 23.1034 37.9323 21.7869 37.9323 20.163C37.9323 18.539 36.6135 17.2225 34.9866 17.2225C33.3598 17.2225 32.041 18.539 32.041 20.163C32.041 21.7869 33.3598 23.1034 34.9866 23.1034Z" fill="#212121"/>
<path d="M40.9493 4.71941C40.963 5.35726 42.3487 6.58061 42.9876 6.56714C43.6266 6.55368 41.3017 8.93413 41.2882 8.29629C41.2882 7.57273 40.8769 7.14103 40.0353 7.5611C39.4041 7.66611 40.9358 4.08155 40.9493 4.71941Z" fill="currentColor"/>
<path d="M16.3409 4.71941C16.3274 5.35726 14.9415 6.58061 14.3025 6.56714C13.6635 6.55368 15.9884 8.93413 16.0019 8.29629C16.0019 7.57273 16.4134 7.14103 17.255 7.5611C17.8862 7.66611 16.3544 4.08155 16.3409 4.71941Z" fill="currentColor"/>
<path d="M53.0795 11.3417C54.4739 11.3417 55.6043 10.2132 55.6043 8.82128C55.6043 7.42931 54.4739 6.3009 53.0795 6.3009C51.6851 6.3009 50.5547 7.42931 50.5547 8.82128C50.5547 10.2132 51.6851 11.3417 53.0795 11.3417Z" fill="currentColor"/>
<path d="M50.5547 15.5423C50.5547 14.1504 51.6852 13.022 53.0795 13.022C54.4738 13.022 55.6043 14.1504 55.6043 15.5423V28.9844C55.6043 30.3762 54.4738 31.5047 53.0795 31.5047C51.6852 31.5047 50.5547 30.3762 50.5547 28.9844V15.5423Z" fill="currentColor"/>
<path d="M94.9512 23.3135C94.9512 21.9216 96.0817 20.7931 97.476 20.7931C98.8703 20.7931 100.001 21.9216 100.001 23.3135V47.257C100.001 48.6489 98.8703 49.7774 97.476 49.7774C96.0817 49.7774 94.9512 48.6489 94.9512 47.257V23.3135Z" fill="currentColor"/>
<path fill-rule="evenodd" clip-rule="evenodd" d="M90.7421 31.5047C95.855 31.5047 99.9997 27.3673 99.9997 22.2634C99.9997 17.1595 95.855 13.022 90.7421 13.022C85.6291 13.022 81.4844 17.1595 81.4844 22.2634C81.4844 27.3673 85.6291 31.5047 90.7421 31.5047ZM90.7421 26.464C93.0662 26.464 94.9501 24.5834 94.9501 22.2634C94.9501 19.9434 93.0662 18.0627 90.7421 18.0627C88.418 18.0627 86.534 19.9434 86.534 22.2634C86.534 24.5834 88.418 26.464 90.7421 26.464Z" fill="currentColor"/>
<path fill-rule="evenodd" clip-rule="evenodd" d="M73.1152 65.0085C75.6287 66.2821 78.4725 67 81.4842 67C91.7099 67 99.9995 58.725 99.9995 48.5172C99.9995 43.6056 98.0805 39.1416 94.9499 35.8315V48.5172V49.7774H94.8916C94.2552 56.6104 88.4954 61.9592 81.4842 61.9592C79.0589 61.9592 76.7832 61.3191 74.8174 60.1988L73.1152 65.0085Z" fill="currentColor"/>
<path fill-rule="evenodd" clip-rule="evenodd" d="M63.8101 29.8692C61.3947 28.2014 59.8125 25.4168 59.8125 22.2634C59.8125 17.1595 63.9572 13.022 69.0702 13.022C74.1832 13.022 78.3279 17.1595 78.3279 22.2634C78.3279 25.5075 76.6533 28.3612 74.1198 30.0101V22.4734H73.273C73.2765 22.4039 73.2782 22.3337 73.2782 22.2634C73.2782 19.9434 71.3943 18.0627 69.0702 18.0627C66.7461 18.0627 64.8621 19.9434 64.8621 22.2634C64.8621 22.3337 64.8638 22.4039 64.8674 22.4734H63.8101V29.8692Z" fill="currentColor"/>
<path d="M59.8125 15.5423C59.8125 14.1504 60.943 13.022 62.3373 13.022C63.7317 13.022 64.8621 14.1504 64.8621 15.5423V28.9844C64.8621 30.3762 63.7317 31.5047 62.3373 31.5047C60.943 31.5047 59.8125 30.3762 59.8125 28.9844V15.5423Z" fill="currentColor"/>
<path d="M73.2793 22.6833C73.2793 21.2915 74.4098 20.163 75.8041 20.163C77.1985 20.163 78.3289 21.2915 78.3289 22.6833V28.9843C78.3289 30.3762 77.1985 31.5047 75.8041 31.5047C74.4098 31.5047 73.2793 30.3762 73.2793 28.9843V22.6833Z" fill="currentColor"/>
<path d="M73.5633 65.0677C74.9984 65.0677 76.1618 63.9063 76.1618 62.4738C76.1618 61.0412 74.9984 59.8799 73.5633 59.8799C72.1282 59.8799 70.9648 61.0412 70.9648 62.4738C70.9648 63.9063 72.1282 65.0677 73.5633 65.0677Z" fill="currentColor"/>
</g>
<rect y="29" width="95" height="7" fill="#F1F1FD"/>
<defs>
<clipPath id="clip0_5796_12590">
<rect width="89" height="67" fill="white" transform="translate(11)"/>
</clipPath>
</defs>
</svg>
