<svg width="14" height="13" viewBox="0 0 14 13" fill="none" xmlns="http://www.w3.org/2000/svg">
<path d="M2.21834 12L2.20501 12.0133L2.19101 12H0.994341C0.818883 11.9998 0.650672 11.93 0.526667 11.8059C0.402663 11.6817 0.333008 11.5135 0.333008 11.338V0.662C0.334228 0.486919 0.404275 0.319345 0.528016 0.195478C0.651758 0.0716119 0.819261 0.00139643 0.994341 0H13.005C13.3703 0 13.6663 0.296667 13.6663 0.662V11.338C13.6651 11.5131 13.5951 11.6807 13.4713 11.8045C13.3476 11.9284 13.1801 11.9986 13.005 12H2.21834ZM12.333 8V1.33333H1.66634V10.6667L8.33301 4L12.333 8ZM12.333 9.88533L8.33301 5.88533L3.55167 10.6667H12.333V9.88533ZM4.33301 5.33333C3.97939 5.33333 3.64025 5.19286 3.3902 4.94281C3.14015 4.69276 2.99967 4.35362 2.99967 4C2.99967 3.64638 3.14015 3.30724 3.3902 3.05719C3.64025 2.80714 3.97939 2.66667 4.33301 2.66667C4.68663 2.66667 5.02577 2.80714 5.27582 3.05719C5.52587 3.30724 5.66634 3.64638 5.66634 4C5.66634 4.35362 5.52587 4.69276 5.27582 4.94281C5.02577 5.19286 4.68663 5.33333 4.33301 5.33333Z" fill="#7171EE"/>
</svg>
