<svg width="16" height="16" viewBox="0 0 16 16" fill="none" xmlns="http://www.w3.org/2000/svg">
<path d="M1.33301 2.662C1.33423 2.48692 1.40427 2.31934 1.52802 2.19548C1.65176 2.07161 1.81926 2.0014 1.99434 2H14.005C14.3703 2 14.6663 2.29667 14.6663 2.662V13.338C14.6651 13.5131 14.5951 13.6807 14.4713 13.8045C14.3476 13.9284 14.1801 13.9986 14.005 14H1.99434C1.81888 13.9998 1.65067 13.93 1.52667 13.8059C1.40266 13.6817 1.33301 13.5135 1.33301 13.338V2.662ZM2.66634 3.33333V12.6667H13.333V3.33333H2.66634ZM7.08101 5.61L10.3337 7.778C10.3703 7.80234 10.4002 7.83535 10.421 7.87408C10.4417 7.91281 10.4526 7.95606 10.4526 8C10.4526 8.04394 10.4417 8.08719 10.421 8.12592C10.4002 8.16465 10.3703 8.19766 10.3337 8.222L7.08034 10.39C7.04023 10.4166 6.99366 10.4318 6.94559 10.4341C6.89752 10.4364 6.84972 10.4256 6.80728 10.4029C6.76484 10.3802 6.72933 10.3465 6.70451 10.3052C6.6797 10.264 6.66651 10.2168 6.66634 10.1687V5.83133C6.66643 5.7831 6.6796 5.73579 6.70445 5.69445C6.72929 5.65311 6.76489 5.61929 6.80744 5.59657C6.84999 5.57386 6.8979 5.56312 6.94608 5.56548C6.99425 5.56784 7.04089 5.58323 7.08101 5.61Z" fill="#7171EE"/>
</svg>
