<svg width="18" height="20" viewBox="0 0 18 20" fill="none" xmlns="http://www.w3.org/2000/svg">
<g clip-path="url(#clip0_1245_3992)">
<path d="M1.07998 0C0.809967 0 0.521984 0.100702 0.32397 0.300716C0.125977 0.499737 0 0.75036 0 1.00047V19.0005C0 19.2506 0.108004 19.5173 0.323991 19.7002C0.539999 19.9002 0.810492 20 1.07949 20H16.9195C17.1895 20 17.4775 19.9002 17.676 19.7002C17.8915 19.5007 18 19.2506 18 19.0005V6L12 0L1.07998 0Z" fill="#FF5562"/>
<path d="M18 6H13.2387C12.9284 6 12.5987 5.89383 12.3715 5.68204C12.2555 5.59027 12.1623 5.4766 12.0982 5.34875C12.0341 5.22089 12.0006 5.08184 12 4.94102V0L18 6Z" fill="#FFBBC0"/>
<path d="M2.00002 9.56057C2.00002 9.44169 2.0102 9.34501 2.03053 9.27169C2.04691 9.20401 2.0887 9.14395 2.14841 9.10225C2.22331 9.05703 2.30892 9.02939 2.39788 9.0217C2.50559 9.00723 2.64736 9 2.82207 9H4.05456C4.43985 9 4.76473 9.03112 5.02978 9.09336C5.29541 9.15612 5.512 9.26002 5.68131 9.40779C5.85004 9.55502 5.97327 9.74834 6.04867 9.98891C6.12404 10.2295 6.16233 10.525 6.16233 10.8756C6.16233 11.2267 6.12165 11.5261 6.0397 11.7756C5.97037 12.0048 5.84133 12.2147 5.66395 12.3867C5.48211 12.5521 5.25788 12.6718 5.01242 12.7344C4.74679 12.8078 4.4279 12.8444 4.05516 12.8444H3.13677V14.5589C3.13656 14.6726 3.08946 14.7819 3.00515 14.8644C2.91839 14.9555 2.77243 15 2.5684 15C2.36439 15 2.2184 14.9517 2.13165 14.8555C2.04371 14.7594 2 14.6611 2 14.5589L2.00002 9.56057ZM3.13677 11.8939H4.05516C4.4279 11.8939 4.68335 11.8156 4.81977 11.6567C4.95738 11.4983 5.02559 11.2406 5.02559 10.8845C5.02559 10.6978 5.00046 10.545 4.9514 10.4261C4.90894 10.3171 4.83826 10.2194 4.74558 10.1417C4.65807 10.0709 4.55304 10.0212 4.43985 9.99724C4.31362 9.97094 4.18453 9.95826 4.05516 9.95945H3.13677V11.8939V11.8939ZM8.84686 9.00002C9.3016 9.00002 9.69345 9.07559 10.0231 9.22503C10.3436 9.36823 10.6224 9.58063 10.8362 9.84446C11.0486 10.1078 11.2065 10.4189 11.3083 10.7778C11.41 11.1378 11.4614 11.5261 11.4614 11.945C11.4614 12.3917 11.4088 12.7978 11.3041 13.1628C11.2124 13.5019 11.0489 13.8207 10.823 14.1006C10.6076 14.3606 10.3324 14.5672 10.0183 14.7033C9.69823 14.8444 9.32188 14.9155 8.89053 14.9155H7.22908C7.02507 14.9155 6.89524 14.8822 6.84017 14.8178C6.78454 14.7528 6.75643 14.6578 6.75643 14.5333V9.38224C6.75643 9.25781 6.78334 9.16279 6.83539 9.0978C6.88805 9.0328 7.01907 9.00002 7.22908 9.00002H8.84686ZM7.8938 14.0328H8.89055C9.846 14.0328 10.3247 13.3283 10.3247 11.9194C10.3276 11.6293 10.3012 11.3395 10.2457 11.0539C10.1936 10.7994 10.1027 10.5861 9.97466 10.4134C9.84727 10.2415 9.67188 10.1052 9.46732 10.0189C9.25791 9.92779 8.99286 9.88279 8.67158 9.88279H7.8938V14.0328ZM15.2127 11.385C15.3814 11.385 15.5155 11.4239 15.6148 11.5039C15.6961 11.5828 15.7374 11.7039 15.7374 11.8689C15.7374 12.0383 15.6967 12.1583 15.6148 12.2294C15.5334 12.3 15.3994 12.335 15.2127 12.335H13.3586V14.6522C13.3586 14.7311 13.3137 14.8094 13.2234 14.8855C13.1325 14.9622 12.9859 15 12.7819 15C12.5772 15 12.433 14.9622 12.3487 14.8855C12.2649 14.8094 12.2218 14.7316 12.2218 14.6522V9.46667C12.2218 9.29112 12.2691 9.17002 12.3619 9.10225C12.4558 9.0339 12.5952 9.00002 12.7819 9.00002H15.4837C15.6525 9.00002 15.7799 9.03558 15.8637 9.10612C15.948 9.17725 15.9941 9.30057 15.9995 9.47558C16.0055 9.65113 15.9618 9.77391 15.8678 9.84446C15.7745 9.91556 15.6435 9.95058 15.4748 9.95058H13.3586V11.385H15.2127Z" fill="white"/>
</g>
<defs>
<clipPath id="clip0_1245_3992">
<rect width="18" height="20" fill="white"/>
</clipPath>
</defs>
</svg>
