<svg width="20" height="20" viewBox="0 0 20 20" fill="none" xmlns="http://www.w3.org/2000/svg">
<path d="M5.83268 3.33333V16.6667H14.166V3.33333H5.83268ZM4.99935 1.66667H14.9993C15.2204 1.66667 15.4323 1.75446 15.5886 1.91074C15.7449 2.06702 15.8327 2.27899 15.8327 2.5V17.5C15.8327 17.721 15.7449 17.933 15.5886 18.0893C15.4323 18.2455 15.2204 18.3333 14.9993 18.3333H4.99935C4.77834 18.3333 4.56637 18.2455 4.41009 18.0893C4.25381 17.933 4.16602 17.721 4.16602 17.5V2.5C4.16602 2.27899 4.25381 2.06702 4.41009 1.91074C4.56637 1.75446 4.77834 1.66667 4.99935 1.66667ZM9.99935 14.1667C10.2204 14.1667 10.4323 14.2545 10.5886 14.4107C10.7449 14.567 10.8327 14.779 10.8327 15C10.8327 15.221 10.7449 15.433 10.5886 15.5893C10.4323 15.7455 10.2204 15.8333 9.99935 15.8333C9.77834 15.8333 9.56637 15.7455 9.41009 15.5893C9.25381 15.433 9.16602 15.221 9.16602 15C9.16602 14.779 9.25381 14.567 9.41009 14.4107C9.56637 14.2545 9.77834 14.1667 9.99935 14.1667Z" fill="currentColor"/>
</svg>
