<svg width="24" height="24" viewBox="0 0 24 24" fill="none" xmlns="http://www.w3.org/2000/svg">
<path fill-rule="evenodd" clip-rule="evenodd" d="M12 24C18.6274 24 24 18.6274 24 12C24 5.37258 18.6274 0 12 0C5.37258 0 0 5.37258 0 12C0 18.6274 5.37258 24 12 24ZM17.6186 15.7757L14.2339 12.3917C14.0183 12.1754 14.0183 11.8245 14.2339 11.6089L17.5694 8.27407C18.0281 7.81462 18.1395 7.07589 17.7604 6.54915C17.2771 5.8777 16.335 5.82199 15.7757 6.38201L12.3917 9.76601C12.1754 9.98235 11.8245 9.98235 11.6089 9.76601L8.27407 6.43121C7.81462 5.97176 7.07589 5.86034 6.54915 6.23947C5.8777 6.7228 5.82199 7.66485 6.38201 8.22415L9.76601 11.6089C9.98235 11.8245 9.98235 12.1754 9.76601 12.3917L6.43121 15.7265C5.97176 16.1853 5.86034 16.9247 6.23947 17.4507C6.7228 18.1222 7.66485 18.1779 8.22415 17.6186L11.6089 14.2339C11.8245 14.0183 12.1754 14.0183 12.3917 14.2339L15.7265 17.5694C16.1853 18.0281 16.924 18.1395 17.4507 17.7604C18.1222 17.2771 18.1779 16.335 17.6186 15.7757Z" fill="#DCDCDC"/>
</svg>
