<svg width="16" height="16" viewBox="0 0 16 16" fill="none" xmlns="http://www.w3.org/2000/svg">
<path d="M2.66667 1.33333H13.3333C13.5101 1.33333 13.6797 1.40357 13.8047 1.52859C13.9298 1.65361 14 1.82318 14 1.99999V14.8507C14.0001 14.9063 13.9862 14.961 13.9597 15.0099C13.9332 15.0588 13.8948 15.1003 13.8482 15.1306C13.8015 15.1609 13.748 15.179 13.6926 15.1833C13.6371 15.1876 13.5814 15.178 13.5307 15.1553L8 12.6867L2.46933 15.1547C2.4186 15.1773 2.36301 15.187 2.30761 15.1827C2.25221 15.1784 2.19876 15.1603 2.15212 15.1301C2.10548 15.0999 2.06713 15.0585 2.04057 15.0097C2.014 14.9609 2.00005 14.9062 2 14.8507V1.99999C2 1.82318 2.07024 1.65361 2.19526 1.52859C2.32029 1.40357 2.48986 1.33333 2.66667 1.33333ZM12.6667 13.31V2.66666H3.33333V13.31L8 11.2273L12.6667 13.31ZM8 9L6.04067 10.03L6.41467 7.84866L4.83 6.30333L7.02067 5.98466L8 3.99999L8.98 5.98466L11.17 6.30333L9.58533 7.84866L9.95867 10.03L8 9Z" fill="currentColor"/>
</svg>
