<svg width="16" height="16" viewBox="0 0 16 16" fill="none" xmlns="http://www.w3.org/2000/svg">
<path d="M14 5.33294C14.3536 5.33294 14.6927 5.47342 14.9428 5.72347C15.1928 5.97351 15.3333 6.31265 15.3333 6.66627L15.3333 9.33294C15.3333 9.68656 15.1928 10.0257 14.9428 10.2758C14.6927 10.5258 14.3536 10.6663 14 10.6663H13.292C13.1294 11.9551 12.5021 13.1404 11.5278 13.9996C10.5534 14.8588 9.29903 15.3329 7.99996 15.3329V13.9996C9.06082 13.9996 10.0782 13.5782 10.8284 12.828C11.5785 12.0779 12 11.0605 12 9.99961L12 5.99961C12 4.93874 11.5785 3.92133 10.8284 3.17118C10.0782 2.42104 9.06082 1.99961 7.99996 1.99961C6.93909 1.99961 5.92168 2.42104 5.17153 3.17118C4.42139 3.92133 3.99996 4.93874 3.99996 5.99961L3.99996 10.6663H1.99996C1.64634 10.6663 1.3072 10.5258 1.05715 10.2758C0.807102 10.0257 0.666626 9.68656 0.666626 9.33294L0.666626 6.66627C0.666626 6.31265 0.807102 5.97351 1.05715 5.72347C1.3072 5.47342 1.64634 5.33294 1.99996 5.33294H2.70796C2.87065 4.0442 3.49801 2.85912 4.47234 2.00006C5.44667 1.14099 6.70099 0.666992 7.99996 0.666992C9.29892 0.666992 10.5532 1.14099 11.5276 2.00006C12.5019 2.85912 13.1293 4.0442 13.292 5.33294H14ZM5.17329 10.5229L5.87996 9.39227C6.51534 9.7903 7.2502 10.0008 7.99996 9.99961C8.74971 10.0008 9.48458 9.7903 10.12 9.39227L10.8266 10.5229C9.97947 11.0537 8.99965 11.3345 7.99996 11.3329C7.00026 11.3345 6.02045 11.0537 5.17329 10.5229Z" fill="currentColor"/>
</svg>
