<svg width="16" height="16" viewBox="0 0 16 16" fill="none" xmlns="http://www.w3.org/2000/svg">
<path d="M7.99967 14.6667C4.31767 14.6667 1.33301 11.682 1.33301 8.00004C1.33301 4.31804 4.31767 1.33337 7.99967 1.33337C11.6817 1.33337 14.6663 4.31804 14.6663 8.00004C14.6663 11.682 11.6817 14.6667 7.99967 14.6667ZM7.99967 13.3334C9.41416 13.3334 10.7707 12.7715 11.7709 11.7713C12.7711 10.7711 13.333 9.41453 13.333 8.00004C13.333 6.58555 12.7711 5.229 11.7709 4.2288C10.7707 3.22861 9.41416 2.66671 7.99967 2.66671C6.58519 2.66671 5.22863 3.22861 4.22844 4.2288C3.22824 5.229 2.66634 6.58555 2.66634 8.00004C2.66634 9.41453 3.22824 10.7711 4.22844 11.7713C5.22863 12.7715 6.58519 13.3334 7.99967 13.3334ZM4.66634 8.66671H5.99967C5.99967 9.19714 6.21039 9.70585 6.58546 10.0809C6.96053 10.456 7.46924 10.6667 7.99967 10.6667C8.53011 10.6667 9.03882 10.456 9.41389 10.0809C9.78896 9.70585 9.99967 9.19714 9.99967 8.66671H11.333C11.333 9.55076 10.9818 10.3986 10.3567 11.0237C9.73158 11.6489 8.88373 12 7.99967 12C7.11562 12 6.26777 11.6489 5.64265 11.0237C5.01753 10.3986 4.66634 9.55076 4.66634 8.66671ZM5.33301 7.33337C5.06779 7.33337 4.81344 7.22802 4.6259 7.04048C4.43836 6.85294 4.33301 6.59859 4.33301 6.33337C4.33301 6.06816 4.43836 5.8138 4.6259 5.62627C4.81344 5.43873 5.06779 5.33337 5.33301 5.33337C5.59822 5.33337 5.85258 5.43873 6.04011 5.62627C6.22765 5.8138 6.33301 6.06816 6.33301 6.33337C6.33301 6.59859 6.22765 6.85294 6.04011 7.04048C5.85258 7.22802 5.59822 7.33337 5.33301 7.33337ZM10.6663 7.33337C10.4011 7.33337 10.1468 7.22802 9.95923 7.04048C9.7717 6.85294 9.66634 6.59859 9.66634 6.33337C9.66634 6.06816 9.7717 5.8138 9.95923 5.62627C10.1468 5.43873 10.4011 5.33337 10.6663 5.33337C10.9316 5.33337 11.1859 5.43873 11.3734 5.62627C11.561 5.8138 11.6663 6.06816 11.6663 6.33337C11.6663 6.59859 11.561 6.85294 11.3734 7.04048C11.1859 7.22802 10.9316 7.33337 10.6663 7.33337Z" fill="#7171EE"/>
</svg>
