<svg width="57" height="19" viewBox="0 0 57 19" fill="none" xmlns="http://www.w3.org/2000/svg">
<path d="M13.136 18V8.04L9.872 14.52H7.616L4.328 8.04V18H0.992V0.912H4.28L8.744 10.152L13.184 0.912H16.472V18H13.136ZM20.4451 18V0.912H23.7811V18H20.4451ZM37.8616 18L31.0936 7.512V18H27.7576V0.912H30.7336L37.5016 11.376V0.912H40.8376V18H37.8616ZM56.9881 10.992C56.9881 12.24 56.8601 13.264 56.6041 14.064C56.3641 14.864 55.9481 15.576 55.3561 16.2C54.6841 16.872 53.9481 17.368 53.1481 17.688C52.3641 17.992 51.4921 18.144 50.5321 18.144C48.7081 18.144 47.1721 17.52 45.9241 16.272C45.1881 15.536 44.7241 14.68 44.5321 13.704C44.3401 12.744 44.2441 11.328 44.2441 9.456C44.2441 7.584 44.3401 6.168 44.5321 5.208C44.7241 4.232 45.1881 3.376 45.9241 2.64C47.1721 1.392 48.7081 0.767999 50.5321 0.767999C51.5081 0.767999 52.3641 0.911999 53.1001 1.2C53.8521 1.488 54.4921 1.888 55.0201 2.4C55.5641 2.896 55.9961 3.48 56.3161 4.152C56.6361 4.808 56.8521 5.504 56.9641 6.24H53.6041C53.1881 4.576 52.1641 3.744 50.5321 3.744C49.6361 3.744 48.9241 4.048 48.3961 4.656C48.2361 4.848 48.1001 5.048 47.9881 5.256C47.8921 5.464 47.8121 5.744 47.7481 6.096C47.6841 6.432 47.6361 6.864 47.6041 7.392C47.5881 7.92 47.5801 8.608 47.5801 9.456C47.5801 10.304 47.5881 10.992 47.6041 11.52C47.6361 12.048 47.6761 12.488 47.7241 12.84C47.7881 13.176 47.8681 13.456 47.9641 13.68C48.0761 13.888 48.2201 14.088 48.3961 14.28C48.8921 14.872 49.6041 15.168 50.5321 15.168C51.5241 15.168 52.3161 14.848 52.9081 14.208C53.4201 13.616 53.6761 12.856 53.6761 11.928V11.28H50.5321V8.496H56.9881V10.992Z" fill="currentColor"/>
</svg>
