<svg xmlns="http://www.w3.org/2000/svg" width="16" height="16" viewBox="0 0 16 16" fill="none">
  <path d="M8.00004 14.6667C4.31804 14.6667 1.33337 11.682 1.33337 8.00001C1.33337 4.31801 4.31804 1.33334 8.00004 1.33334C11.682 1.33334 14.6667 4.31801 14.6667 8.00001C14.6667 11.682 11.682 14.6667 8.00004 14.6667ZM8.00004 13.3333C9.41453 13.3333 10.7711 12.7714 11.7713 11.7712C12.7715 10.7711 13.3334 9.4145 13.3334 8.00001C13.3334 6.58552 12.7715 5.22897 11.7713 4.22877C10.7711 3.22858 9.41453 2.66668 8.00004 2.66668C6.58555 2.66668 5.229 3.22858 4.2288 4.22877C3.22861 5.22897 2.66671 6.58552 2.66671 8.00001C2.66671 9.4145 3.22861 10.7711 4.2288 11.7712C5.229 12.7714 6.58555 13.3333 8.00004 13.3333ZM7.33337 10H8.66671V11.3333H7.33337V10ZM7.33337 4.66668H8.66671V8.66668H7.33337V4.66668Z" fill="#CCCCCC"/>
</svg>