<svg width="12" height="12" viewBox="0 0 12 12" fill="none" xmlns="http://www.w3.org/2000/svg">
<path d="M2.71962 8.124L5.78462 4.37C5.80666 4.33235 5.83817 4.30112 5.87602 4.27942C5.91387 4.25772 5.95674 4.2463 6.00037 4.2463C6.044 4.2463 6.08687 4.25772 6.12472 4.27942C6.16257 4.30112 6.19408 4.33235 6.21612 4.37L9.28112 8.124C9.30334 8.16207 9.31509 8.20533 9.3152 8.2494C9.3153 8.29348 9.30375 8.3368 9.28172 8.37497C9.25969 8.41314 9.22796 8.44481 9.18975 8.46677C9.15153 8.48873 9.10819 8.50019 9.06412 8.5L2.93562 8.5C2.89163 8.50001 2.84842 8.48842 2.81034 8.46639C2.77227 8.44436 2.74068 8.41268 2.71877 8.37453C2.69686 8.33639 2.6854 8.29314 2.68555 8.24915C2.6857 8.20516 2.69745 8.16199 2.71962 8.124Z" fill="currentColor"/>
</svg>
