<svg width="48" height="48" viewBox="0 0 48 48" fill="none" xmlns="http://www.w3.org/2000/svg">
<g clip-path="url(#clip0_4299_6274)">
<path d="M8 0H40C45.3333 0 48 2.66667 48 8V40C48 45.3333 45.3333 48 40 48H8C2.66667 48 0 45.3333 0 40V8C0 2.66667 2.66667 0 8 0Z" fill="#9B9BF4"/>
<path d="M24 0H40C42.1217 0 44.1566 0.842855 45.6568 2.34315C47.1571 3.84344 48 5.87827 48 8V40C48 42.1217 47.1571 44.1566 45.6568 45.6568C44.1566 47.1571 42.1217 48 40 48H8C5.87827 48 3.84344 47.1571 2.34315 45.6568C0.842855 44.1566 0 42.1217 0 40V24C0 10.746 10.746 0 24 0Z" fill="#7171EE"/>
<path d="M29 22.2L34.213 18.55C34.288 18.4975 34.3759 18.4665 34.4672 18.4605C34.5586 18.4545 34.6498 18.4737 34.731 18.516C34.8122 18.5583 34.8802 18.6221 34.9276 18.7004C34.9751 18.7786 35.0001 18.8685 35 18.96V31.04C35.0001 31.1315 34.9751 31.2214 34.9276 31.2996C34.8802 31.3779 34.8122 31.4417 34.731 31.484C34.6498 31.5263 34.5586 31.5455 34.4672 31.5395C34.3759 31.5335 34.288 31.5025 34.213 31.45L29 27.8V32C29 32.2652 28.8946 32.5196 28.7071 32.7071C28.5196 32.8946 28.2652 33 28 33H14C13.7348 33 13.4804 32.8946 13.2929 32.7071C13.1054 32.5196 13 32.2652 13 32V18C13 17.7348 13.1054 17.4804 13.2929 17.2929C13.4804 17.1054 13.7348 17 14 17H28C28.2652 17 28.5196 17.1054 28.7071 17.2929C28.8946 17.4804 29 17.7348 29 18V22.2ZM17 21V26.2H22.1429V21H17Z" fill="white"/>
<rect x="17" y="21" width="5" height="5" fill="#BDBDFC"/>
</g>
<defs>
<clipPath id="clip0_4299_6274">
<rect width="48" height="48" fill="white"/>
</clipPath>
</defs>
</svg>
