<svg xmlns="http://www.w3.org/2000/svg" width="48" height="48" viewBox="0 0 48 48" fill="none">
  <g clip-path="url(#clip0_4299_6123)">
    <path d="M8 0H40C45.3333 0 48 2.66667 48 8V40C48 45.3333 45.3333 48 40 48H8C2.66667 48 0 45.3333 0 40V8C0 2.66667 2.66667 0 8 0Z" fill="#9B9BF4"/>
    <path d="M24 0H40C42.1217 0 44.1566 0.842855 45.6568 2.34315C47.1571 3.84344 48 5.87827 48 8V40C48 42.1217 47.1571 44.1566 45.6568 45.6568C44.1566 47.1571 42.1217 48 40 48H8C5.87827 48 3.84344 47.1571 2.34315 45.6568C0.842855 44.1566 0 42.1217 0 40V24C0 10.746 10.746 0 24 0Z" fill="#7171EE"/>
    <path d="M32 13C32 13.7956 32.3161 14.5587 32.8787 15.1213C33.4413 15.6839 34.2044 16 35 16C35.7957 16 36.5587 15.6839 37.1213 15.1213C37.6839 14.5587 38 13.7956 38 13C38 12.2043 37.6839 11.4413 37.1213 10.8787C36.5587 10.3161 35.7957 10 35 10C34.2044 10 33.4413 10.3161 32.8787 10.8787C32.3161 11.4413 32 12.2043 32 13Z" fill="white"/>
    <path d="M30.3384 21.8862L23.6904 33.6242C23.5185 33.9284 23.4293 34.2723 23.4317 34.6217C23.434 34.9711 23.5279 35.3138 23.7039 35.6156C23.8799 35.9175 24.1319 36.1679 24.4349 36.3421C24.7378 36.5162 25.081 36.608 25.4305 36.6082H35.7645C36.4773 36.6083 37.1773 36.4179 37.7918 36.0566C38.4064 35.6954 38.9133 35.1765 39.26 34.5537C39.6067 33.9308 39.7807 33.2266 39.7639 32.5139C39.7471 31.8013 39.5401 31.106 39.1645 30.5002L33.7785 21.8202C33.5957 21.525 33.3393 21.2825 33.0344 21.1165C32.7295 20.9505 32.3867 20.8668 32.0397 20.8734C31.6926 20.8801 31.3532 20.977 31.0549 21.1545C30.7567 21.3321 30.5097 21.5842 30.3384 21.8862Z" fill="#BDBDFC"/>
    <path d="M17.3644 17.8657L9.70443 30.4497C9.33533 31.056 9.13421 31.7496 9.12171 32.4593C9.10922 33.169 9.2858 33.8692 9.63332 34.4882C9.98085 35.1071 10.4868 35.6224 11.0993 35.9811C11.7117 36.3399 12.4086 36.5293 13.1184 36.5297H31.8924L20.7924 17.8837C20.6164 17.587 20.3665 17.3408 20.0671 17.1692C19.7678 16.9976 19.4291 16.9063 19.0841 16.9043C18.739 16.9023 18.3993 16.9896 18.098 17.1577C17.7967 17.3258 17.544 17.5691 17.3644 17.8637V17.8657Z" fill="white"/>
  </g>
  <defs>
    <clipPath id="clip0_4299_6123">
      <rect width="48" height="48" fill="white"/>
    </clipPath>
  </defs>
</svg>