<svg width="48" height="48" viewBox="0 0 48 48" fill="none" xmlns="http://www.w3.org/2000/svg">
<g clip-path="url(#clip0_1239_3331)">
<path d="M8 0H40C45.3333 0 48 2.66667 48 8V40C48 45.3333 45.3333 48 40 48H8C2.66667 48 0 45.3333 0 40V8C0 2.66667 2.66667 0 8 0Z" fill="#9B9BF4"/>
<path d="M24 0H40C42.1217 0 44.1566 0.842855 45.6568 2.34315C47.1571 3.84344 48 5.87827 48 8V40C48 42.1217 47.1571 44.1566 45.6568 45.6568C44.1566 47.1571 42.1217 48 40 48H8C5.87827 48 3.84344 47.1571 2.34315 45.6568C0.842855 44.1566 0 42.1217 0 40V24C0 10.746 10.746 0 24 0Z" fill="#7171EE"/>
<path d="M32 13C32 13.7956 32.3161 14.5587 32.8787 15.1213C33.4413 15.6839 34.2044 16 35 16C35.7957 16 36.5587 15.6839 37.1213 15.1213C37.6839 14.5587 38 13.7956 38 13C38 12.2043 37.6839 11.4413 37.1213 10.8787C36.5587 10.3161 35.7957 10 35 10C34.2044 10 33.4413 10.3161 32.8787 10.8787C32.3161 11.4413 32 12.2043 32 13Z" fill="white"/>
<path d="M30.338 21.8859L23.69 33.6239C23.5181 33.9281 23.4288 34.2721 23.4312 34.6215C23.4336 34.9709 23.5274 35.3135 23.7034 35.6154C23.8794 35.9172 24.1314 36.1677 24.4344 36.3418C24.7373 36.516 25.0806 36.6077 25.43 36.6079H35.764C36.4768 36.608 37.1768 36.4176 37.7913 36.0564C38.4059 35.6952 38.9128 35.1763 39.2595 34.5534C39.6062 33.9306 39.7802 33.2263 39.7634 32.5137C39.7466 31.801 39.5396 31.1058 39.164 30.4999L33.778 21.8199C33.5952 21.5248 33.3388 21.2823 33.0339 21.1163C32.7291 20.9503 32.3862 20.8665 32.0392 20.8732C31.6921 20.8798 31.3527 20.9767 31.0545 21.1543C30.7562 21.3319 30.5092 21.584 30.338 21.8859Z" fill="#BDBDFC"/>
<path d="M17.3639 17.866L9.70394 30.45C9.33484 31.0563 9.13372 31.7499 9.12123 32.4596C9.10873 33.1693 9.28531 33.8695 9.63283 34.4884C9.98036 35.1073 10.4863 35.6226 11.0988 35.9814C11.7112 36.3402 12.4081 36.5295 13.1179 36.53H31.8919L20.7919 17.884C20.6159 17.5872 20.366 17.3411 20.0667 17.1695C19.7673 16.9978 19.4286 16.9066 19.0836 16.9046C18.7385 16.9026 18.3988 16.9899 18.0975 17.158C17.7962 17.3261 17.5435 17.5693 17.3639 17.864V17.866Z" fill="white"/>
</g>
<defs>
<clipPath id="clip0_1239_3331">
<rect width="48" height="48" fill="white"/>
</clipPath>
</defs>
</svg>
