<svg width="24" height="24" viewBox="0 0 24 24" fill="none" xmlns="http://www.w3.org/2000/svg">
<g clip-path="url(#clip0_17_1118)">
<rect width="24" height="24" rx="12" fill="white"/>
<circle cx="12" cy="12" r="12" fill="#7171EE" fill-opacity="0.1"/>
<ellipse cx="12" cy="20.4" rx="7.5" ry="3.9" fill="url(#paint0_linear_17_1118)"/>
<ellipse opacity="0.6" cx="12.6001" cy="17.7" rx="3" ry="1.2" fill="url(#paint1_linear_17_1118)"/>
<path d="M16.5 6C16.8978 6 17.2794 6.15804 17.5607 6.43934C17.842 6.72064 18 7.10218 18 7.5V12C18 15.3135 15.3135 18 12 18C8.6865 18 6 15.3135 6 12C6 8.7375 8.6045 6.083 11.8475 6.002L12 6H16.5ZM9 11C9.06566 11 9.13068 11.0129 9.19134 11.0381C9.25201 11.0632 9.30712 11.1 9.35355 11.1464C9.39998 11.1929 9.43681 11.248 9.46194 11.3087C9.48707 11.3693 9.5 11.4343 9.5 11.5V12.5C9.5 12.6326 9.44732 12.7598 9.35355 12.8536C9.25979 12.9473 9.13261 13 9 13C8.86739 13 8.74022 12.9473 8.64645 12.8536C8.55268 12.7598 8.5 12.6326 8.5 12.5V11.5C8.5 11.4343 8.51293 11.3693 8.53806 11.3087C8.56319 11.248 8.60002 11.1929 8.64645 11.1464C8.69288 11.1 8.748 11.0632 8.80866 11.0381C8.86932 11.0129 8.93434 11 9 11ZM11 11C11.0657 11 11.1307 11.0129 11.1913 11.0381C11.252 11.0632 11.3071 11.1 11.3536 11.1464C11.4 11.1929 11.4368 11.248 11.4619 11.3087C11.4871 11.3693 11.5 11.4343 11.5 11.5V12.5C11.5 12.6326 11.4473 12.7598 11.3536 12.8536C11.2598 12.9473 11.1326 13 11 13C10.8674 13 10.7402 12.9473 10.6464 12.8536C10.5527 12.7598 10.5 12.6326 10.5 12.5V11.5C10.5 11.4343 10.5129 11.3693 10.5381 11.3087C10.5632 11.248 10.6 11.1929 10.6464 11.1464C10.6929 11.1 10.748 11.0632 10.8087 11.0381C10.8693 11.0129 10.9343 11 11 11Z" fill="url(#paint2_linear_17_1118)"/>
<path d="M11.2494 16.5C12.9064 16.5 14.25 15.1566 14.25 13.5C14.25 13.5 13.1447 14 11.2494 14C9.35409 14 8.25 13.5 8.25 13.5C8.24883 15.1578 9.59246 16.5 11.2494 16.5Z" fill="#F5F5F5"/>
</g>
<defs>
<linearGradient id="paint0_linear_17_1118" x1="11.55" y1="15.45" x2="11.0453" y2="19.4167" gradientUnits="userSpaceOnUse">
<stop stop-color="#7171EE"/>
<stop offset="1" stop-color="#9B9BF4"/>
</linearGradient>
<linearGradient id="paint1_linear_17_1118" x1="10.6346" y1="15.9" x2="11.3825" y2="18.3211" gradientUnits="userSpaceOnUse">
<stop offset="0.0420983" stop-color="#7171EE"/>
<stop offset="1" stop-color="#7171EE"/>
</linearGradient>
<linearGradient id="paint2_linear_17_1118" x1="12" y1="6" x2="13.669" y2="17.9764" gradientUnits="userSpaceOnUse">
<stop stop-color="#7171EE"/>
<stop offset="1" stop-color="#9B9BF4"/>
</linearGradient>
<clipPath id="clip0_17_1118">
<rect width="24" height="24" rx="12" fill="white"/>
</clipPath>
</defs>
</svg>
