<svg width="24" height="18" viewBox="0 0 24 18" fill="none" xmlns="http://www.w3.org/2000/svg">
<g clip-path="url(#clip0_128_918)">
<path d="M1.66941 17.9362C3.93208 17.1687 8.1869 16.1719 11.7453 17.8939C11.8248 17.9324 11.9119 17.9523 12.0002 17.9523C12.0885 17.9523 12.1756 17.9324 12.2551 17.8939C15.8135 16.1718 20.0683 17.1687 22.3309 17.9362C23.0876 18.1928 23.932 17.64 23.932 16.8412V4.9842C23.932 4.33855 23.5529 3.74478 22.9379 3.54743C19.7174 2.51394 15.2049 2.60769 12.2187 3.82884C12.0787 3.88627 11.9217 3.88627 11.7816 3.82884C8.79542 2.60769 4.28301 2.51394 1.06248 3.54743C0.447461 3.74478 0.0683594 4.3386 0.0683594 4.9842V16.8412C0.0683594 17.64 0.912802 18.1928 1.66941 17.9362Z" fill="#FCBF28"/>
<path d="M1.66941 17.9362C3.93208 17.1687 8.1869 16.1719 11.7453 17.8939C11.8248 17.9324 11.9119 17.9523 12.0002 17.9523C12.0885 17.9523 12.1756 17.9324 12.2551 17.8939C15.8135 16.1718 20.0683 17.1687 22.3309 17.9362C23.0876 18.1928 23.932 17.64 23.932 16.8412V4.9842C23.932 4.33855 23.5529 3.74478 22.9379 3.54743C19.7174 2.51394 15.2049 2.60769 12.2187 3.82884C12.0787 3.88627 11.9217 3.88627 11.7816 3.82884C8.79542 2.60769 4.28301 2.51394 1.06248 3.54743C0.447461 3.74478 0.0683594 4.3386 0.0683594 4.9842V16.8412C0.0683594 17.64 0.912802 18.1928 1.66941 17.9362Z" fill="url(#paint0_linear_128_918)"/>
<path d="M21.2199 13.6351C21.2199 13.9592 20.9358 14.21 20.613 14.1806C16.4895 13.804 14.8196 14.7044 12.5021 16.094C12.1886 16.282 11.8036 16.2958 11.4641 16.16C8.7208 15.0622 4.76492 15.0289 1.94843 16.0605C1.57258 16.198 1.15283 15.9314 1.15283 15.5315V2.97523C1.15283 2.55895 1.38875 2.17452 1.77707 2.02388C4.60273 0.92679 8.66444 0.938455 11.4641 2.05877C11.8036 2.1946 12.1886 2.18075 12.5021 1.99277C14.7562 0.641598 16.3973 -0.241463 20.2795 0.140675C20.8186 0.193782 21.22 0.65614 21.22 1.19824V13.6351H21.2199Z" fill="#FCDA6E"/>
<path d="M21.2199 13.6351C21.2199 13.9592 20.9358 14.21 20.613 14.1806C16.4895 13.804 14.8196 14.7044 12.5021 16.094C12.1886 16.282 11.8036 16.2958 11.4641 16.16C8.7208 15.0622 4.76492 15.0289 1.94843 16.0605C1.57258 16.198 1.15283 15.9314 1.15283 15.5315V2.97523C1.15283 2.55895 1.38875 2.17452 1.77707 2.02388C4.60273 0.92679 8.66444 0.938455 11.4641 2.05877C11.8036 2.1946 12.1886 2.18075 12.5021 1.99277C14.7562 0.641598 16.3973 -0.241463 20.2795 0.140675C20.8186 0.193782 21.22 0.65614 21.22 1.19824V13.6351H21.2199Z" fill="#FCDA6E"/>
<path d="M4.03445 7.71741C3.67809 7.80104 3.32227 7.53971 3.32227 7.17356V6.62965C3.32227 6.27409 3.55227 5.95656 3.89776 5.87064C5.62191 5.44131 7.531 5.44131 9.25515 5.87064C9.60064 5.95656 9.83059 6.27409 9.83059 6.62965V7.17356C9.83059 7.53971 9.47477 7.80104 9.11847 7.71741C7.47624 7.33219 5.67667 7.33219 4.03445 7.71741ZM4.03445 12.0563C3.67809 12.1399 3.32227 11.8785 3.32227 11.5124V10.9685C3.32227 10.6129 3.55227 10.2954 3.89776 10.2095C5.62191 9.78013 7.531 9.78013 9.25515 10.2095C9.60064 10.2954 9.83059 10.6129 9.83059 10.9685V11.5124C9.83059 11.8785 9.47477 12.1399 9.11847 12.0563C7.47624 11.6711 5.67667 11.6711 4.03445 12.0563Z" fill="white"/>
<path fill-rule="evenodd" clip-rule="evenodd" d="M20.6129 14.1806C20.9357 14.21 21.2198 13.9592 21.2198 13.6351L21.2198 1.19824C21.2198 0.65614 20.8185 0.193782 20.2794 0.140675C16.4152 -0.239692 14.7713 0.63344 12.5333 1.97401C12.5229 1.98026 12.5125 1.98651 12.502 1.99277V1.99279C12.3982 2.05385 12.3949 2.05474 12.2795 2.08568C12.2325 2.0983 12.1668 2.11592 12.068 2.14465H12.0029V16.1574L12.0094 16.16C12.1738 16.2258 12.221 16.2564 12.2615 16.2493C12.3047 16.2416 12.3403 16.191 12.502 16.094C12.5036 16.0931 12.5052 16.0922 12.5067 16.0912C14.8218 14.7031 16.4922 13.8042 20.6129 14.1806Z" fill="#FFF5D5"/>
</g>
<defs>
<linearGradient id="paint0_linear_128_918" x1="12.0002" y1="2.83679" x2="12.0002" y2="17.9997" gradientUnits="userSpaceOnUse">
<stop stop-color="#FFB648"/>
<stop offset="1" stop-color="#FED64E"/>
</linearGradient>
<clipPath id="clip0_128_918">
<rect width="24" height="18" fill="white"/>
</clipPath>
</defs>
</svg>
