<svg width="16" height="16" viewBox="0 0 16 16" fill="none" xmlns="http://www.w3.org/2000/svg">
<path d="M9.03773 8.00047L13.7848 3.25379C14.0717 2.96667 14.0717 2.50245 13.7848 2.2172C13.4979 1.93009 13.034 1.93009 12.749 2.2172L8 6.96201L3.25105 2.21533C2.96414 1.92822 2.50023 1.92822 2.21518 2.21533C1.92827 2.50245 1.92827 2.96667 2.21518 3.25192L6.96227 7.9986L2.21518 12.7471C1.92827 13.0343 1.92827 13.4985 2.21518 13.7837C2.35864 13.9273 2.54681 13.9981 2.73312 13.9981C2.92129 13.9981 3.10759 13.9273 3.25105 13.7837L8 9.03705L12.749 13.7856C12.8924 13.9292 13.0787 14 13.2669 14C13.4551 14 13.6414 13.9292 13.7848 13.7856C14.0717 13.4985 14.0717 13.0343 13.7848 12.749L9.03773 8.00047Z" fill="currentColor"/>
</svg>
