<svg width="16" height="16" viewBox="0 0 16 16" fill="none" xmlns="http://www.w3.org/2000/svg">
<g clip-path="url(#clip0_1093_1581)">
<path d="M9.73329 10.6666H14C14.3536 10.6666 14.6927 10.5262 14.9428 10.2761C15.1928 10.0261 15.3333 9.68694 15.3333 9.33332V7.93065C15.3335 7.75641 15.2995 7.58382 15.2333 7.42265L13.17 2.41265C13.1196 2.2905 13.0341 2.18607 12.9243 2.11259C12.8146 2.03912 12.6854 1.99993 12.5533 1.99998H1.33329C1.15648 1.99998 0.986912 2.07022 0.861888 2.19524C0.736864 2.32027 0.666626 2.48984 0.666626 2.66665V9.33332C0.666626 9.51013 0.736864 9.6797 0.861888 9.80472C0.986912 9.92974 1.15648 9.99998 1.33329 9.99998H3.65463C3.76136 9.99996 3.86653 10.0256 3.96132 10.0746C4.0561 10.1237 4.13771 10.1948 4.19929 10.282L7.83463 15.4333C7.88058 15.4984 7.94835 15.5449 8.02565 15.5644C8.10295 15.5838 8.18466 15.5749 8.25596 15.5393L9.46529 14.9346C9.80563 14.7645 10.0775 14.4831 10.2358 14.1371C10.394 13.7911 10.4292 13.4014 10.3353 13.0326L9.73329 10.6666ZM3.33329 8.66665H1.99996V3.33331H3.33329V8.66665Z" fill="currentColor"/>
</g>
<defs>
<clipPath id="clip0_1093_1581">
<rect width="16" height="16" fill="white" transform="matrix(1 0 0 -1 0 16)"/>
</clipPath>
</defs>
</svg>
