<svg width="64" height="64" viewBox="0 0 64 64" fill="none" xmlns="http://www.w3.org/2000/svg">
<g clip-path="url(#clip0_493_1823)">
<circle cx="32" cy="32" r="32" fill="url(#paint0_linear_493_1823)"/>
<path d="M14.4734 21.2797C14.7589 19.8393 16.1951 18.9504 17.6104 19.3381C18.9092 19.6938 19.7178 21.0022 19.4558 22.324L12.3156 58.3432C12.0301 59.7836 10.5939 60.6725 9.17861 60.2848C7.87977 59.9291 7.07118 58.6207 7.33322 57.2988L14.4734 21.2797Z" fill="white"/>
<path d="M44.712 22.3245C44.45 21.0026 45.2586 19.6943 46.5574 19.3385C47.9728 18.9508 49.4089 19.8397 49.6945 21.2801L56.8346 57.2993C57.0967 58.6212 56.2881 59.9295 54.9892 60.2853C53.5739 60.6729 52.1377 59.784 51.8522 58.3436L44.712 22.3245Z" fill="white"/>
<path d="M16 23L32 35L46 23L58 69H10L16 23Z" fill="white"/>
<path fill-rule="evenodd" clip-rule="evenodd" d="M15.268 19.3488C14.273 20.3659 14.273 22.015 15.268 23.0322L30.1543 38.2496C30.6717 38.7786 31.3564 39.0324 32.0343 39.0113C32.7122 39.0324 33.3968 38.7786 33.9143 38.2496L48.8006 23.0322C49.7956 22.015 49.7956 20.3659 48.8006 19.3488C47.8056 18.3316 46.1923 18.3316 45.1973 19.3488L32.0343 32.8046L18.8713 19.3488C17.8763 18.3316 16.263 18.3316 15.268 19.3488Z" fill="white"/>
<circle cx="32" cy="32" r="32" fill="url(#paint1_linear_493_1823)"/>
<circle cx="24" cy="43" r="3" fill="black"/>
<circle cx="22" cy="41" r="1" fill="white"/>
<circle cx="40" cy="43" r="3" fill="black"/>
<circle cx="38" cy="41" r="1" fill="white"/>
</g>
<defs>
<linearGradient id="paint0_linear_493_1823" x1="32" y1="24.5" x2="32" y2="64" gradientUnits="userSpaceOnUse">
<stop stop-color="#7171EE"/>
<stop offset="1" stop-color="#69A5FF"/>
</linearGradient>
<linearGradient id="paint1_linear_493_1823" x1="32" y1="45.5" x2="32" y2="81.5" gradientUnits="userSpaceOnUse">
<stop stop-color="#7171EE" stop-opacity="0"/>
<stop offset="1" stop-color="#7171EE" stop-opacity="0.35"/>
</linearGradient>
<clipPath id="clip0_493_1823">
<rect width="64" height="64" rx="32" fill="white"/>
</clipPath>
</defs>
</svg>
