<svg width="20" height="20" viewBox="0 0 20 20" fill="none" xmlns="http://www.w3.org/2000/svg">
<g clip-path="url(#clip0_2121_3159)">
<path d="M10 18.3334C5.39752 18.3334 1.66669 14.6026 1.66669 10.0001C1.66669 5.39758 5.39752 1.66675 10 1.66675C14.6025 1.66675 18.3334 5.39758 18.3334 10.0001C18.3334 14.6026 14.6025 18.3334 10 18.3334ZM10 16.6667C11.7681 16.6667 13.4638 15.9644 14.7141 14.7141C15.9643 13.4639 16.6667 11.7682 16.6667 10.0001C16.6667 8.23197 15.9643 6.53628 14.7141 5.28604C13.4638 4.03579 11.7681 3.33341 10 3.33341C8.23191 3.33341 6.53622 4.03579 5.28598 5.28604C4.03573 6.53628 3.33335 8.23197 3.33335 10.0001C3.33335 11.7682 4.03573 13.4639 5.28598 14.7141C6.53622 15.9644 8.23191 16.6667 10 16.6667ZM6 9H14.1667V11H6V9Z" fill="currentColor"/>
</g>
<defs>
<clipPath id="clip0_2121_3159">
<rect width="20" height="20" fill="white"/>
</clipPath>
</defs>
</svg>
