<svg width="20" height="20" viewBox="0 0 20 20" fill="none" xmlns="http://www.w3.org/2000/svg">
<path d="M9.30566 5.90283H10.6946V16.3195H9.30566V5.90283Z" fill="#7171EE"/>
<path d="M2.36144 16.6666C1.97949 16.6666 1.66699 16.3541 1.66699 15.9721V4.68739C1.66699 4.47906 1.73644 4.27072 1.91005 4.09711C2.18783 3.81934 2.60449 3.81934 2.84755 3.81934H7.39616C8.7156 3.81934 10.0698 4.5485 10.6948 5.59017C10.9031 5.90267 10.7989 6.35406 10.4517 6.52767C10.1392 6.736 9.68783 6.63184 9.51421 6.28461C9.13227 5.65961 8.22949 5.20822 7.43088 5.20822H3.05588V15.9721C3.05588 16.3541 2.74338 16.6666 2.36144 16.6666Z" fill="#7171EE"/>
<path d="M17.6392 16.3195C17.2573 16.3195 16.9448 16.007 16.9448 15.6251V5.20841H12.9517C12.0837 5.20841 11.042 5.72925 10.6948 6.31953C10.4864 6.63203 10.0698 6.77091 9.75727 6.56258C9.44477 6.35425 9.30588 5.93758 9.51421 5.62508C10.2087 4.47925 11.8059 3.85425 12.9864 3.85425H17.535C17.6392 3.85425 17.917 3.85425 18.1253 4.06258C18.3337 4.27091 18.3337 4.54869 18.3337 4.65286V15.6251C18.3337 16.007 18.0212 16.3195 17.6392 16.3195ZM10.1739 17.8473C9.9656 17.8473 9.75727 17.7431 9.61838 17.5695C9.23644 17.0487 8.36838 16.6667 7.53505 16.6667H2.36144C1.97949 16.6667 1.66699 16.3542 1.66699 15.9723C1.66699 15.5904 1.97949 15.2779 2.36144 15.2779H7.53505C8.78505 15.2779 10.0698 15.8681 10.7295 16.7362C10.9725 17.0487 10.9031 17.4654 10.5906 17.7084C10.4517 17.8126 10.3128 17.8473 10.1739 17.8473Z" fill="#7171EE"/>
<path d="M10.1734 17.8473C10.0345 17.8473 9.89561 17.8126 9.75673 17.7084C9.44423 17.4653 9.37478 17.0487 9.61784 16.7362C10.2776 15.8681 11.5623 15.2778 12.8123 15.2778H17.6387C18.0206 15.2778 18.3331 15.5903 18.3331 15.9723C18.3331 16.3542 18.0206 16.6667 17.6387 16.6667H12.8123C12.0137 16.6667 11.1456 17.0487 10.7289 17.5695C10.5901 17.7431 10.3817 17.8473 10.1734 17.8473Z" fill="#7171EE"/>
</svg>
