<svg width="18" height="18" viewBox="0 0 18 18" fill="none" xmlns="http://www.w3.org/2000/svg">
<path d="M1.65982 10.5451C1.44412 9.52636 1.44412 8.47377 1.65982 7.45507C2.49232 7.55257 3.21982 7.27732 3.45682 6.70432C3.69457 6.13057 3.37582 5.42182 2.71732 4.90207C3.2851 4.02931 4.02931 3.2851 4.90207 2.71732C5.42107 3.37507 6.13057 3.69457 6.70432 3.45682C7.27807 3.21907 7.55332 2.49232 7.45507 1.65982C8.47377 1.44412 9.52636 1.44412 10.5451 1.65982C10.4476 2.49232 10.7228 3.21982 11.2958 3.45682C11.8696 3.69457 12.5783 3.37582 13.0981 2.71732C13.9708 3.2851 14.715 4.02931 15.2828 4.90207C14.6251 5.42107 14.3056 6.13057 14.5433 6.70432C14.7811 7.27807 15.5078 7.55332 16.3403 7.45507C16.556 8.47377 16.556 9.52636 16.3403 10.5451C15.5078 10.4476 14.7803 10.7228 14.5433 11.2958C14.3056 11.8696 14.6243 12.5783 15.2828 13.0981C14.715 13.9708 13.9708 14.715 13.0981 15.2828C12.5791 14.6251 11.8696 14.3056 11.2958 14.5433C10.7221 14.7811 10.4468 15.5078 10.5451 16.3403C9.52636 16.556 8.47377 16.556 7.45507 16.3403C7.55257 15.5078 7.27732 14.7803 6.70432 14.5433C6.13057 14.3056 5.42182 14.6243 4.90207 15.2828C4.02931 14.715 3.2851 13.9708 2.71732 13.0981C3.37507 12.5791 3.69457 11.8696 3.45682 11.2958C3.21907 10.7221 2.49232 10.4468 1.65982 10.5451ZM3.00007 9.15757C3.82507 9.38632 4.50532 9.90907 4.84282 10.7221C5.17957 11.5358 5.06782 12.3871 4.64632 13.1311C4.71832 13.2076 4.79257 13.2818 4.86907 13.3538C5.61382 12.9323 6.46432 12.8213 7.27807 13.1573C8.09107 13.4948 8.61382 14.1751 8.84257 15.0001C8.94757 15.0031 9.05257 15.0031 9.15757 15.0001C9.38632 14.1751 9.90907 13.4948 10.7221 13.1573C11.5358 12.8206 12.3871 12.9323 13.1311 13.3538C13.2076 13.2818 13.2818 13.2076 13.3538 13.1311C12.9323 12.3863 12.8213 11.5358 13.1573 10.7221C13.4948 9.90907 14.1751 9.38632 15.0001 9.15757C15.0031 9.05257 15.0031 8.94757 15.0001 8.84257C14.1751 8.61382 13.4948 8.09107 13.1573 7.27807C12.8206 6.46432 12.9323 5.61307 13.3538 4.86907C13.2815 4.79286 13.2073 4.71859 13.1311 4.64632C12.3863 5.06782 11.5358 5.17882 10.7221 4.84282C9.90907 4.50532 9.38632 3.82507 9.15757 3.00007C9.05258 2.99729 8.94755 2.99729 8.84257 3.00007C8.61382 3.82507 8.09107 4.50532 7.27807 4.84282C6.46432 5.17957 5.61307 5.06782 4.86907 4.64632C4.79257 4.71832 4.71832 4.79257 4.64632 4.86907C5.06782 5.61382 5.17882 6.46432 4.84282 7.27807C4.50532 8.09107 3.82507 8.61382 3.00007 8.84257C2.99707 8.94757 2.99707 9.05257 3.00007 9.15757ZM9.00007 11.2501C8.40333 11.2501 7.83103 11.013 7.40908 10.5911C6.98712 10.1691 6.75007 9.5968 6.75007 9.00007C6.75007 8.40333 6.98712 7.83103 7.40908 7.40908C7.83103 6.98712 8.40333 6.75007 9.00007 6.75007C9.5968 6.75007 10.1691 6.98712 10.5911 7.40908C11.013 7.83103 11.2501 8.40333 11.2501 9.00007C11.2501 9.5968 11.013 10.1691 10.5911 10.5911C10.1691 11.013 9.5968 11.2501 9.00007 11.2501ZM9.00007 9.75007C9.19898 9.75007 9.38974 9.67105 9.5304 9.5304C9.67105 9.38974 9.75007 9.19898 9.75007 9.00007C9.75007 8.80115 9.67105 8.61039 9.5304 8.46974C9.38974 8.32908 9.19898 8.25007 9.00007 8.25007C8.80115 8.25007 8.61039 8.32908 8.46974 8.46974C8.32908 8.61039 8.25007 8.80115 8.25007 9.00007C8.25007 9.19898 8.32908 9.38974 8.46974 9.5304C8.61039 9.67105 8.80115 9.75007 9.00007 9.75007Z" fill="#7171EE"/>
</svg>
