<svg width="18" height="18" viewBox="0 0 18 18" fill="none" xmlns="http://www.w3.org/2000/svg">
<path d="M13.875 7.5L17.175 15.75H15.5588L14.658 13.5H11.5905L10.6912 15.75H9.07575L12.375 7.5H13.875ZM7.5 1.5V3H12V4.5H10.524C9.94547 6.24156 9.02211 7.84876 7.809 9.22575C8.34998 9.70846 8.93676 10.1372 9.561 10.506L8.99775 11.9145C8.19189 11.4574 7.4382 10.914 6.75 10.2938C5.41019 11.5063 3.82353 12.4141 2.09925 12.9548L1.69725 11.508C3.17463 11.0369 4.53602 10.2595 5.6925 9.2265C4.83652 8.25745 4.12355 7.17095 3.57525 6H5.25525C5.67326 6.77164 6.1745 7.4952 6.75 8.15775C7.68758 7.07708 8.42648 5.83898 8.9325 4.50075L1.5 4.5V3H6V1.5H7.5ZM13.125 9.66375L12.1898 12H14.0588L13.125 9.66375Z" fill="#7171EE"/>
</svg>
