<svg width="64" height="64" viewBox="0 0 64 64" fill="none" xmlns="http://www.w3.org/2000/svg">
<circle cx="32" cy="32" r="32" fill="url(#paint0_linear_493_1324)"/>
<path d="M17.8639 18.3707C15.8929 17.8309 13.8929 19.0688 13.4953 21.0747L6.35514 57.0938C5.99022 58.9347 7.11627 60.7567 8.92506 61.2521C10.8961 61.792 12.8961 60.5541 13.2937 58.5482L20.4339 22.529C20.7988 20.6882 19.6727 18.8662 17.8639 18.3707Z" fill="white" stroke="white" stroke-width="2"/>
<path d="M46.3038 18.3712C44.495 18.8666 43.369 20.6887 43.7339 22.5295L50.8741 58.5486C51.2717 60.5546 53.2717 61.7925 55.2427 61.2526C57.0515 60.7572 58.1775 58.9351 57.8126 57.0943L50.6725 21.0751C50.2748 19.0692 48.2748 17.8313 46.3038 18.3712Z" fill="white" stroke="white" stroke-width="2"/>
<g filter="url(#filter0_d_493_1324)">
<mask id="path-4-outside-1_493_1324" maskUnits="userSpaceOnUse" x="12.5217" y="16.5859" width="40" height="25" fill="black">
<rect fill="white" x="12.5217" y="16.5859" width="40" height="25"/>
<path fill-rule="evenodd" clip-rule="evenodd" d="M15.268 19.3488C14.273 20.366 14.273 22.0151 15.268 23.0322L30.1543 38.2496C30.6717 38.7786 31.3564 39.0325 32.0343 39.0113C32.7122 39.0325 33.3968 38.7786 33.9143 38.2496L48.8006 23.0322C49.7956 22.0151 49.7956 20.366 48.8006 19.3488C47.8056 18.3316 46.1923 18.3316 45.1973 19.3488L32.0343 32.8046L18.8713 19.3488C17.8763 18.3316 16.263 18.3316 15.268 19.3488Z"/>
</mask>
<path fill-rule="evenodd" clip-rule="evenodd" d="M15.268 19.3488C14.273 20.366 14.273 22.0151 15.268 23.0322L30.1543 38.2496C30.6717 38.7786 31.3564 39.0325 32.0343 39.0113C32.7122 39.0325 33.3968 38.7786 33.9143 38.2496L48.8006 23.0322C49.7956 22.0151 49.7956 20.366 48.8006 19.3488C47.8056 18.3316 46.1923 18.3316 45.1973 19.3488L32.0343 32.8046L18.8713 19.3488C17.8763 18.3316 16.263 18.3316 15.268 19.3488Z" fill="white"/>
<path d="M15.268 23.0322L13.8383 24.4308H13.8383L15.268 23.0322ZM15.268 19.3488L16.6977 20.7474L15.268 19.3488ZM30.1543 38.2496L28.7246 39.6482H28.7246L30.1543 38.2496ZM32.0343 39.0113L32.0968 37.0123L32.0343 37.0103L31.9718 37.0123L32.0343 39.0113ZM33.9143 38.2496L32.4846 36.8511L33.9143 38.2496ZM48.8006 23.0322L47.3709 21.6337V21.6337L48.8006 23.0322ZM48.8006 19.3488L47.3709 20.7474L47.3709 20.7474L48.8006 19.3488ZM45.1973 19.3488L46.627 20.7474L46.627 20.7474L45.1973 19.3488ZM32.0343 32.8046L30.6046 34.2032L32.0343 35.6646L33.464 34.2032L32.0343 32.8046ZM18.8713 19.3488L17.4416 20.7474L18.8713 19.3488ZM16.6977 21.6337C16.4631 21.3938 16.4631 20.9872 16.6977 20.7474L13.8383 17.9502C12.0829 19.7447 12.0829 22.6363 13.8383 24.4308L16.6977 21.6337ZM31.584 36.8511L16.6977 21.6337L13.8383 24.4308L28.7246 39.6482L31.584 36.8511ZM31.9718 37.0123C31.8371 37.0165 31.6988 36.9684 31.584 36.8511L28.7246 39.6482C29.6447 40.5888 30.8756 41.0485 32.0968 41.0103L31.9718 37.0123ZM31.9718 41.0103C33.193 41.0485 34.4239 40.5888 35.344 39.6482L32.4846 36.8511C32.3698 36.9684 32.2314 37.0165 32.0968 37.0123L31.9718 41.0103ZM35.344 39.6482L50.2303 24.4308L47.3709 21.6337L32.4846 36.8511L35.344 39.6482ZM50.2303 24.4308C51.9857 22.6363 51.9857 19.7447 50.2303 17.9502L47.3709 20.7474C47.6055 20.9872 47.6055 21.3938 47.3709 21.6337L50.2303 24.4308ZM50.2303 17.9502C48.4508 16.1312 45.5471 16.1312 43.7676 17.9502L46.627 20.7474C46.8376 20.5321 47.1603 20.5321 47.3709 20.7474L50.2303 17.9502ZM43.7676 17.9502L30.6046 31.406L33.464 34.2032L46.627 20.7474L43.7676 17.9502ZM17.4416 20.7474L30.6046 34.2032L33.464 31.406L20.301 17.9502L17.4416 20.7474ZM16.6977 20.7474C16.9082 20.5321 17.231 20.5321 17.4416 20.7474L20.301 17.9502C18.5215 16.1312 15.6178 16.1312 13.8383 17.9502L16.6977 20.7474Z" fill="white" mask="url(#path-4-outside-1_493_1324)"/>
</g>
<circle cx="32" cy="32" r="32" fill="url(#paint1_linear_493_1324)"/>
<defs>
<filter id="filter0_d_493_1324" x="8.52173" y="13.5859" width="47.0251" height="32.4265" filterUnits="userSpaceOnUse" color-interpolation-filters="sRGB">
<feFlood flood-opacity="0" result="BackgroundImageFix"/>
<feColorMatrix in="SourceAlpha" type="matrix" values="0 0 0 0 0 0 0 0 0 0 0 0 0 0 0 0 0 0 127 0" result="hardAlpha"/>
<feOffset dy="1"/>
<feGaussianBlur stdDeviation="2"/>
<feComposite in2="hardAlpha" operator="out"/>
<feColorMatrix type="matrix" values="0 0 0 0 0.443137 0 0 0 0 0.443137 0 0 0 0 0.933333 0 0 0 0.5 0"/>
<feBlend mode="normal" in2="BackgroundImageFix" result="effect1_dropShadow_493_1324"/>
<feBlend mode="normal" in="SourceGraphic" in2="effect1_dropShadow_493_1324" result="shape"/>
</filter>
<linearGradient id="paint0_linear_493_1324" x1="32" y1="24.5" x2="32" y2="64" gradientUnits="userSpaceOnUse">
<stop stop-color="#7171EE"/>
<stop offset="1" stop-color="#69A5FF"/>
</linearGradient>
<linearGradient id="paint1_linear_493_1324" x1="32" y1="45.5" x2="32" y2="64" gradientUnits="userSpaceOnUse">
<stop stop-color="#7171EE" stop-opacity="0"/>
<stop offset="1" stop-color="#7171EE" stop-opacity="0.35"/>
</linearGradient>
</defs>
</svg>
