<svg width="20" height="20" viewBox="0 0 20 20" fill="none" xmlns="http://www.w3.org/2000/svg">
<g id="icon/show">
<path id="Vector" d="M9.99998 1.66671C14.6025 1.66671 18.3333 5.39754 18.3333 10C18.3333 14.6025 14.6025 18.3334 9.99998 18.3334C5.39748 18.3334 1.66665 14.6025 1.66665 10C1.66665 5.39754 5.39748 1.6667 9.99998 1.66671ZM9.99998 3.33337C8.23187 3.33337 6.53618 4.03575 5.28593 5.28599C4.03569 6.53624 3.33331 8.23193 3.33331 10C3.33331 11.7681 4.03569 13.4638 5.28593 14.7141C6.53618 15.9643 8.23187 16.6667 9.99998 16.6667C11.7681 16.6667 13.4638 15.9643 14.714 14.7141C15.9643 13.4638 16.6666 11.7682 16.6666 10C16.6666 8.23193 15.9643 6.53624 14.714 5.28599C13.4638 4.03575 11.7681 3.33337 9.99998 3.33337ZM10.8333 7.50004L9.16665 7.50004L9.16665 5.83337L10.8333 5.83337L10.8333 7.50004ZM10.8333 14.1667L9.16665 14.1667L9.16665 9.16671L10.8333 9.16671L10.8333 14.1667Z" fill="#7171EE"/>
</g>
</svg>
