<svg width="20" height="20" viewBox="0 0 20 20" fill="none" xmlns="http://www.w3.org/2000/svg">
<g id="icon/show">
<path id="Vector" d="M10 0.833252L16.8475 2.35492C17.2283 2.43992 17.5 2.77742 17.5 3.16825V11.4908C17.5 13.1624 16.6642 14.7241 15.2733 15.6508L10 19.1666L4.72667 15.6508C3.335 14.7233 2.5 13.1624 2.5 11.4916V3.16825C2.5 2.77742 2.77167 2.43992 3.1525 2.35492L10 0.833252ZM10 2.54075L4.16667 3.83659V11.4908C4.16667 12.6049 4.72333 13.6458 5.65083 14.2641L10 17.1641L14.3492 14.2641C15.2767 13.6458 15.8333 12.6058 15.8333 11.4916V3.83659L10 2.54159V2.54075ZM13.71 6.85158L14.8892 8.02992L9.58583 13.3333L6.05 9.79742L7.22833 8.61908L9.585 10.9758L13.71 6.85075V6.85158Z" fill="currentColor"/>
</g>
</svg>
