<svg width="20" height="20" viewBox="0 0 20 20" fill="none" xmlns="http://www.w3.org/2000/svg">
<g id="icon/show">
<path id="Vector" d="M9.99999 18.3334C5.39749 18.3334 1.66666 14.6026 1.66666 10.0001C1.66666 5.39758 5.39749 1.66675 9.99999 1.66675C14.6025 1.66675 18.3333 5.39758 18.3333 10.0001C18.3333 14.6026 14.6025 18.3334 9.99999 18.3334ZM5.84416 15.2134C7.02378 16.1565 8.48972 16.6692 9.99999 16.6667C11.6417 16.6667 13.1442 16.0734 14.3058 15.0901C13.7631 14.5332 13.1142 14.0908 12.3975 13.7891C11.6808 13.4874 10.9109 13.3324 10.1333 13.3334C9.32715 13.3325 8.52958 13.4991 7.79121 13.8228C7.05285 14.1464 6.38981 14.62 5.84416 15.2134ZM4.67999 14.0167C5.38037 13.2735 6.22555 12.6815 7.16344 12.2773C8.10133 11.8732 9.11206 11.6654 10.1333 11.6667C11.118 11.6655 12.0933 11.8587 13.0031 12.2354C13.9129 12.6121 14.7394 13.1648 15.435 13.8617C16.1484 12.8577 16.5697 11.6756 16.6521 10.4467C16.7346 9.21774 16.475 7.98999 15.9021 6.89963C15.3292 5.80927 14.4654 4.89893 13.4066 4.26962C12.3478 3.6403 11.1354 3.31661 9.90383 3.33446C8.67226 3.3523 7.46971 3.71099 6.42959 4.37071C5.38947 5.03044 4.55246 5.96542 4.0114 7.07192C3.47034 8.17842 3.2464 9.41317 3.36442 10.6392C3.48244 11.8652 3.9378 13.0346 4.67999 14.0176V14.0167ZM9.99999 10.8334C9.11594 10.8334 8.26809 10.4822 7.64297 9.8571C7.01785 9.23198 6.66666 8.38414 6.66666 7.50008C6.66666 6.61603 7.01785 5.76818 7.64297 5.14306C8.26809 4.51794 9.11594 4.16675 9.99999 4.16675C10.884 4.16675 11.7319 4.51794 12.357 5.14306C12.9821 5.76818 13.3333 6.61603 13.3333 7.50008C13.3333 8.38414 12.9821 9.23198 12.357 9.8571C11.7319 10.4822 10.884 10.8334 9.99999 10.8334ZM9.99999 9.16675C10.442 9.16675 10.8659 8.99115 11.1785 8.67859C11.4911 8.36603 11.6667 7.94211 11.6667 7.50008C11.6667 7.05805 11.4911 6.63413 11.1785 6.32157C10.8659 6.00901 10.442 5.83342 9.99999 5.83342C9.55796 5.83342 9.13404 6.00901 8.82148 6.32157C8.50892 6.63413 8.33332 7.05805 8.33332 7.50008C8.33332 7.94211 8.50892 8.36603 8.82148 8.67859C9.13404 8.99115 9.55796 9.16675 9.99999 9.16675Z" fill="currentColor"/>
</g>
</svg>
