<svg width="20" height="20" viewBox="0 0 20 20" fill="none" xmlns="http://www.w3.org/2000/svg">
<g id="icon/show">
<path id="Vector" d="M15.8333 8.33342H16.6667C16.8877 8.33342 17.0996 8.42121 17.2559 8.57749C17.4122 8.73377 17.5 8.94573 17.5 9.16675V17.5001C17.5 17.7211 17.4122 17.9331 17.2559 18.0893C17.0996 18.2456 16.8877 18.3334 16.6667 18.3334H3.33333C3.11232 18.3334 2.90036 18.2456 2.74408 18.0893C2.5878 17.9331 2.5 17.7211 2.5 17.5001V9.16675C2.5 8.94573 2.5878 8.73377 2.74408 8.57749C2.90036 8.42121 3.11232 8.33342 3.33333 8.33342H4.16667V7.50008C4.16667 6.73404 4.31755 5.97549 4.6107 5.26776C4.90386 4.56003 5.33354 3.91697 5.87521 3.37529C6.41689 2.83362 7.05995 2.40394 7.76768 2.11078C8.47541 1.81763 9.23396 1.66675 10 1.66675C10.766 1.66675 11.5246 1.81763 12.2323 2.11078C12.9401 2.40394 13.5831 2.83362 14.1248 3.37529C14.6665 3.91697 15.0961 4.56003 15.3893 5.26776C15.6825 5.97549 15.8333 6.73404 15.8333 7.50008V8.33342ZM4.16667 10.0001V16.6667H15.8333V10.0001H4.16667ZM9.16667 11.6667H10.8333V15.0001H9.16667V11.6667ZM14.1667 8.33342V7.50008C14.1667 6.39501 13.7277 5.3352 12.9463 4.5538C12.1649 3.7724 11.1051 3.33341 10 3.33341C8.89493 3.33341 7.83512 3.7724 7.05372 4.5538C6.27232 5.3352 5.83333 6.39501 5.83333 7.50008V8.33342H14.1667Z" fill="currentColor"/>
</g>
</svg>
