<svg width="20" height="20" viewBox="0 0 20 20" fill="none" xmlns="http://www.w3.org/2000/svg">
<g id="icon/show">
<g id="Group">
<path id="Vector" d="M0.984192 10C1.76753 5.73333 5.50669 2.5 10 2.5C14.4934 2.5 18.2317 5.73333 19.0159 10C18.2325 14.2667 14.4934 17.5 10 17.5C5.50669 17.5 1.76836 14.2667 0.984192 10ZM10 14.1667C11.1051 14.1667 12.1649 13.7277 12.9463 12.9463C13.7277 12.1649 14.1667 11.1051 14.1667 10C14.1667 8.89493 13.7277 7.83512 12.9463 7.05372C12.1649 6.27232 11.1051 5.83333 10 5.83333C8.89496 5.83333 7.83515 6.27232 7.05375 7.05372C6.27235 7.83512 5.83336 8.89493 5.83336 10C5.83336 11.1051 6.27235 12.1649 7.05375 12.9463C7.83515 13.7277 8.89496 14.1667 10 14.1667ZM10 12.5C9.33698 12.5 8.7011 12.2366 8.23226 11.7678C7.76342 11.2989 7.50002 10.663 7.50002 10C7.50002 9.33696 7.76342 8.70107 8.23226 8.23223C8.7011 7.76339 9.33698 7.5 10 7.5C10.6631 7.5 11.299 7.76339 11.7678 8.23223C12.2366 8.70107 12.5 9.33696 12.5 10C12.5 10.663 12.2366 11.2989 11.7678 11.7678C11.299 12.2366 10.6631 12.5 10 12.5Z" fill="currentColor"/>
</g>
</g>
</svg>
